<svg xmlns="http://www.w3.org/2000/svg" viewBox="0 0 181.09 184.12"><path d="M74.74 73.67a2.88 2.88 0 1 1-.5-4 2.87 2.87 0 0 1 .5 4zM62.8 77.09a10 10 0 1 0-.12-15.75l-2.19-1.69-3.27 1 .37-3.27-2.76-2.14-3.26 1 .37-3.24-2.37-1.84-2 .62.23-2-1.4-1.08-3.13.3-.42 4.81 16.4 12.75a10.06 10.06 0 0 0 3.55 10.53zM74.32 32.33a1.54 1.54 0 0 1-1.95 2.38 1.53 1.53 0 0 1-.22-2.16 1.53 1.53 0 0 1 2.18-.22zM76 38.77a5.37 5.37 0 1 0-8.43-.15l-.94 1.16.5 1.76-1.73-.24-1.18 1.45.51 1.76-1.73-.24-1 1.24.31 1.08-1.06-.15-.59.72.12 1.7 2.57.29 7-8.62A5.37 5.37 0 0 0 76 38.77z" style="fill:#ebebeb;fill-rule:evenodd"/><path style="fill:#e0e0e0;fill-rule:evenodd" d="M53.33 2.35v31.11H8.64L7.03 2.56l46.3-.21z"/><path style="fill:#fff" d="M7.03 2.56h44.69v30.83H7.03z"/><path d="M7.23 33.18H51.5V2.77H7.24zm44.69.43H6.82V2.35h45.1z" style="fill:#e0e0e0;fill-rule:evenodd"/><path style="fill:#fff" d="M11.87 6.39h35.01v23.17H11.87z"/><path d="M46.88 6.39h-9.8l-25.2.05.1-.1v23.21l-.11-.11h35l-.09.09c0-7 0-12.83.05-16.86V8.01 29.66H11.7V6.29h34.98z" style="fill:#e0e0e0;fill-rule:evenodd"/><path d="M7 2.47a4.83 4.83 0 0 1 .8.53c.46.33 1.08.8 1.75 1.34s1.27 1.05 1.7 1.43a3.94 3.94 0 0 1 .64.65c-.05.05-1.12-.85-2.46-1.91A24.32 24.32 0 0 1 7 2.47zM51.72 2.56a21.28 21.28 0 0 1-2.34 2 22.12 22.12 0 0 1-2.49 1.83 22.36 22.36 0 0 1 2.35-2 21.14 21.14 0 0 1 2.48-1.83z" style="fill:#e0e0e0;fill-rule:evenodd"/><path d="m51.69 33.4-5-4z" style="fill:#fff;fill-rule:evenodd"/><path d="M46.71 29.36a22.64 22.64 0 0 1 2.54 1.93 24.32 24.32 0 0 1 2.42 2.12 22.64 22.64 0 0 1-2.54-1.93 22.26 22.26 0 0 1-2.42-2.12zM7 33.39a22.14 22.14 0 0 1 2.33-2 21.93 21.93 0 0 1 2.46-1.81 20.07 20.07 0 0 1-2.33 2A20.68 20.68 0 0 1 7 33.39z" style="fill:#e0e0e0;fill-rule:evenodd"/><path style="fill:#e0e0e0" d="M18.98 13.61h22.03v7.76H18.98z"/><path d="M164.28 179.18c0 .12-36.41.21-81.32.21s-81.33-.09-81.33-.21S38 179 83 179s81.28.07 81.28.18z" style="fill:#263339;fill-rule:evenodd"/><path style="fill:#263339;fill-rule:evenodd" d="m130.28 163.73 10.49 15.26 3.75.09-6.87-15.69-7.37.34zM19.54 164.51l-5.53 14.41h2.76l9.66-14.35-6.89-.06z"/><path d="m17.16 112.13.42 18.66a4.94 4.94 0 0 0 4.82 4.82l104.38 2.32a4.92 4.92 0 0 0 5-4.93v-22.47a13.28 13.28 0 0 0-11.44-13.15c-19.11-2.62-58.52-6.67-90.38-.92a15.57 15.57 0 0 0-12.8 15.67z" style="fill:#1a4f8c;fill-rule:evenodd"/><path d="M16.7 118.65s-8.6-4-10.36 0 .22 8.86 2.15 11.59 1.92 36.35 1.92 36.35l130.42-1.4 1.54-32.33s6.26-7.71 5.87-11-5.67-8.15-11.73-3.19-7.63 15.33-7.63 15.33l-104 .78s.37-14.59-8.18-16.13z" style="fill:#1a4f8c;fill-rule:evenodd"/><ellipse cx="75.96" cy="140.51" rx="51.6" ry=".21" style="fill:#263339"/><path d="M24.36 154.66V148.86c0-3.59 0-8.55-.14-14a59.6 59.6 0 0 0-.59-7.67c-.08-.28-.16-.56-.23-.85a5 5 0 0 0-.32-.79c-.23-.51-.46-1-.71-1.46a15.66 15.66 0 0 0-1.58-2.44 10.93 10.93 0 0 0-1.7-1.7 9.62 9.62 0 0 0-1.52-1 14.93 14.93 0 0 0-1.44-.58h.1l.29.08a6 6 0 0 1 1.09.43 8.08 8.08 0 0 1 1.56 1 10.7 10.7 0 0 1 1.73 1.7 15.57 15.57 0 0 1 1.61 2.42c.26.46.49 1 .72 1.47.11.26.22.53.32.79l.25.85a58.48 58.48 0 0 1 .61 7.71c.17 5.47.11 10.42.08 14 0 1.78 0 3.22-.06 4.24v1.45c-.07.11-.07.15-.07.15zM15.69 126.15a.59.59 0 0 1 .34-.1 1.49 1.49 0 0 1 1 .26 1.56 1.56 0 0 1 .46.53 1.33 1.33 0 0 1 .13.81 1.58 1.58 0 0 1-1.26 1.35 1.6 1.6 0 0 1-1.61-.76 1.46 1.46 0 0 1-.21-.79 1.6 1.6 0 0 1 .92-1.38.73.73 0 0 1 .35-.09s-.12 0-.31.16a1.72 1.72 0 0 0-.62.69 1.33 1.33 0 0 0 0 1.27 1.44 1.44 0 0 0 1.4.66 1.4 1.4 0 0 0 1.06-1.12 1.19 1.19 0 0 0-.48-1.17 1.47 1.47 0 0 0-.85-.31 3.52 3.52 0 0 1-.32-.01z" style="fill:#263339;fill-rule:evenodd"/><path d="M16.27 134.52a2 2 0 0 1-.58-.69 4.18 4.18 0 0 1-.06-4.24 2.25 2.25 0 0 1 .58-.72s-.19.3-.43.79a4.43 4.43 0 0 0-.47 2.05 4.62 4.62 0 0 0 .52 2c.25.53.48.79.44.81zM14.91 121.93a3.46 3.46 0 0 1-.13.64 4 4 0 0 0 .62 2.91 6.42 6.42 0 0 1 .38.53 1.88 1.88 0 0 1-.51-.43 3.45 3.45 0 0 1-.66-3 1.42 1.42 0 0 1 .3-.6zM12.37 126.62c.05 0 .44.36 1.05.67s1.15.42 1.14.47a1.79 1.79 0 0 1-1.24-.28 1.85 1.85 0 0 1-.95-.86zM141.33 154.76c0 .11-29.41.21-65.7.21s-65.63-.1-65.63-.21 29.41-.21 65.72-.21 65.61.09 65.61.21z" style="fill:#263339;fill-rule:evenodd"/><path d="M127.21 134.07c.12 0 .21 4.61.21 10.29s-.09 10.29-.21 10.29-.21-4.65-.21-10.29.09-10.29.21-10.29zM83.56 98.5H82.76l-2.28.06-8.39.2-27.66.55c-2.7.06-5.34.06-7.88.23a26.14 26.14 0 0 0-7.17 1.31 12.64 12.64 0 0 0-5.44 3.59 11.6 11.6 0 0 0-1.7 2.46 15.18 15.18 0 0 0-1 2.54 23.88 23.88 0 0 0-.85 4.66c-.13 1.4-.15 2.61-.15 3.6V120.57a4.76 4.76 0 0 0 0-.59c0-.52-.06-1.27-.07-2.28s0-2.2.12-3.61a23.64 23.64 0 0 1 .85-4.71 15.19 15.19 0 0 1 1-2.59 11.92 11.92 0 0 1 1.7-2.51 12.78 12.78 0 0 1 5.51-3.65 26.76 26.76 0 0 1 7.21-1.33c2.54-.17 5.19-.17 7.89-.23l27.65-.47 8.39-.13H83.36zM50.17 113a2.87 2.87 0 0 0-.36.23 2 2 0 0 0-.65.92 1.61 1.61 0 0 0 .23 1.58 1.7 1.7 0 0 0 3.1-.74 1.66 1.66 0 0 0-.5-1.51 2 2 0 0 0-1-.53h-.43a.9.9 0 0 1 .43 0 2 2 0 0 1 1.59 1.18 1.82 1.82 0 0 1 .1 1 2 2 0 0 1-1.46 1.59 1.9 1.9 0 0 1-2-.77 1.69 1.69 0 0 1-.36-.91 2 2 0 0 1 .13-.85 2 2 0 0 1 .76-.94.89.89 0 0 1 .42-.15z" style="fill:#263339;fill-rule:evenodd"/><path d="M48.38 124a5.15 5.15 0 0 1-.32-1.27 7.18 7.18 0 0 1 .07-3.13 4.25 4.25 0 0 1 1.87-2.51 2.82 2.82 0 0 1 .88-.36.84.84 0 0 1 .35 0 5.45 5.45 0 0 0-1.15.53 4.34 4.34 0 0 0-1.7 2.45 8 8 0 0 0-.13 3 10 10 0 0 1 .13 1.29zM49.93 106.49a9.5 9.5 0 0 0-.63.93 3.73 3.73 0 0 0 1.09 4.79 10.67 10.67 0 0 0 1 .57.8.8 0 0 1-.3-.06 3.64 3.64 0 0 1-.76-.39 3.69 3.69 0 0 1-1.14-5 3.43 3.43 0 0 1 .52-.67c.12-.14.21-.2.22-.17zM49.54 115a20.12 20.12 0 0 0-2.3.52c-.73.29-1.45.61-2.15 1a6.18 6.18 0 0 1 4.45-1.52z" style="fill:#263339;fill-rule:evenodd"/><path d="M35.84 140.81a21.29 21.29 0 0 0 14.41 4.35l-3.21 15c-.28 1.33-.55 2.81.14 4 1 1.64 3.25 1.8 5.16 1.77a13.72 13.72 0 0 0 6.21-1.06c2.67-1.39 4.1-4.34 5.14-7.17s1.93-5.85 4-8a16.58 16.58 0 0 0 9.4 5.35 3.85 3.85 0 0 0 3.11-.43 3 3 0 0 0 .87-2.92 8.55 8.55 0 0 0-1.39-2.88l-6.2-9.63a8.07 8.07 0 0 0-3.18-3.29 7.89 7.89 0 0 0-3.59-.37 165.9 165.9 0 0 0-30 4.47" style="fill:#010101;fill-rule:evenodd;opacity:.30000001192092896"/><path d="M69 93.09c-2.51 6.63-11.87 8.16-15.17 14.42s.78 14.42-2.57 20.59c-1.24 2.28-3.39 4-4.59 6.28-.81 1.54-1.23 3.39-2.54 4.53a5.43 5.43 0 0 1-5.76.45 14.29 14.29 0 0 1-4.58-4 29.4 29.4 0 0 1-5.93-9.71c-2-6.26-.16-13.35 3.81-18.58s9.87-8.76 16.09-10.88 12.8-2.91 19.34-3.53" style="fill:#010101;fill-rule:evenodd;opacity:.30000001192092896"/><path d="M38.86 75.65a10.3 10.3 0 0 1 3.81-3.52 6.73 6.73 0 0 1 5.09-.51 5 5 0 0 1 3.39 3.66c.27 1.36-.09 2.88.61 4.08.8 1.37 2.75 1.8 3.44 3.24a3.14 3.14 0 0 1-.2 2.77 8.45 8.45 0 0 1-1.86 2.18 4.61 4.61 0 0 1 1.16 1 1.6 1.6 0 0 1 .25 1.49 2.24 2.24 0 0 1-1.28 1 12.58 12.58 0 0 1-7.5.7 2.46 2.46 0 0 0-2 .08" style="fill:#263339;fill-rule:evenodd"/><path d="m55.83 80.69-1.36 4.15 9.27 5.26-9.33.3.69 7.6 18-4.41s1.08-7.32-17.23-12.86l-1.27-.31a1.44 1.44 0 0 1-1-.88 1.58 1.58 0 0 0-.77-.82l-1.53-.8v1.21l.85 1-.15 2.3a2.13 2.13 0 0 0 1.63 2.21l.85.2" style="fill:#b78876;fill-rule:evenodd"/><path d="M35.52 95.7a10.24 10.24 0 0 0-5.75 3.3c-1.95 2.5-4.77 11.87-4.77 11.87l7.21 1.24 3.11 7.82s18.43-2.41 17.45-3.39-1.94-1.7-3-2.47L54 100l5.09-2.75-1.72-7-10.23 1.28z" style="fill:#fbfbfb;fill-rule:evenodd"/><path d="M53.14 103.32c0 .11-5.75.21-12.83.21s-12.83-.1-12.83-.21 5.75-.22 12.83-.22 12.83.1 12.83.22zM52 107.47c0 .11-5.75.21-12.83.21s-12.83-.1-12.83-.21 5.74-.21 12.83-.21 12.83.09 12.83.21zM52 111.94c0 .12-4.35.22-9.72.22s-9.71-.1-9.71-.22 4.35-.2 9.71-.2 9.72.09 9.72.2zM53.48 116.27c0 .11-4.35.21-9.72.21s-9.71-.1-9.71-.21 4.34-.21 9.71-.21 9.72.09 9.72.21zM58.08 97.73a48.48 48.48 0 0 1-6.42.21 48.48 48.48 0 0 1-6.42-.21 48.36 48.36 0 0 1 6.42-.21 58.19 58.19 0 0 1 6.42.21zM58.54 93.23c0 .08-2.86.21-6.39.3s-6.39.12-6.39 0 2.85-.21 6.38-.3 6.4-.06 6.4 0z" style="fill:#1a4f8c;fill-rule:evenodd"/><path d="M33.69 105.37a29.17 29.17 0 0 1-.69 3.47 29.17 29.17 0 0 1-.9 3.42 29.17 29.17 0 0 1 .69-3.47 26.88 26.88 0 0 1 .9-3.42z" style="fill:#263339;fill-rule:evenodd"/><path style="fill:#b78876;fill-rule:evenodd" d="m53.75 158.31-5.37 16.93 6.47.65 6.08-14.71-7.18-2.87z"/><path d="m58.48 169.3-3.08 7.64s6.73 5.7 6.3 7.17l-15-5.44 4.3-12.11z" style="fill:#465b65;fill-rule:evenodd"/><path d="M51 174.61a.65.65 0 0 0-.68.55.63.63 0 0 0 .53.68.7.7 0 0 0 .72-.58.66.66 0 0 0-.64-.65M46.67 178.67l.48-1.2 14.24 5.67s.56.53.31 1z" style="fill:#e0e0e0;fill-rule:evenodd"/><path d="M55.67 177c0 .07-.42 0-.85.08s-.75.34-.8.29.2-.42.75-.56.94.09.9.19zM57 178.18c0 .08-.37.09-.73.31s-.54.51-.62.51 0-.47.48-.73.87-.16.87-.09zM57.22 180.4c-.07 0 0-.43.3-.75s.73-.37.74-.3-.28.21-.55.49-.41.58-.49.56zM56.16 175.14c0 .06-.35-.17-.78-.29s-.79-.11-.81-.18.39-.23.89-.08.78.51.7.55zM56.78 173.59a1.6 1.6 0 0 1-.76-.28 3.25 3.25 0 0 1-.69-.53 3.33 3.33 0 0 1-.36-.39 1.07 1.07 0 0 1-.16-.25.34.34 0 0 1 .11-.41.46.46 0 0 1 .38 0 1.15 1.15 0 0 1 .27.14 3.39 3.39 0 0 1 .42.33 2.58 2.58 0 0 1 .53.71 1.34 1.34 0 0 1 .23.77s-.13-.28-.39-.67a3.16 3.16 0 0 0-.53-.62 2.19 2.19 0 0 0-.39-.29c-.14-.1-.28-.15-.34-.1s0 0 0 .09a.76.76 0 0 0 .12.19c.1.13.2.26.31.38a6.42 6.42 0 0 0 .63.54 5.35 5.35 0 0 1 .62.44z" style="fill:#263339;fill-rule:evenodd"/><path d="M56.64 173.66a1.22 1.22 0 0 1 .07-.8 2.57 2.57 0 0 1 .76-1.18.66.66 0 0 1 .61-.21.38.38 0 0 1 .24.33 1.08 1.08 0 0 1 0 .31 1.91 1.91 0 0 1-.19.5 1.66 1.66 0 0 1-.6.66 1 1 0 0 1-.77.24 7.16 7.16 0 0 0 .66-.39 1.73 1.73 0 0 0 .49-.62 1.69 1.69 0 0 0 .15-.43v-.32a.64.64 0 0 0-.35.15 2.65 2.65 0 0 0-.33.34 2.81 2.81 0 0 0-.43.7c-.24.42-.26.72-.31.72z" style="fill:#263339;fill-rule:evenodd"/><path style="fill:#b78876;fill-rule:evenodd" d="m74.12 142.37 8.01 13.93 6.56-4.21-8.05-14.14-6.52 4.42z"/><path d="m86.43 148.11 4.14 7.14s8.63-1.81 9.53-.57l-13.54 8.52-6.91-10.85z" style="fill:#465b65;fill-rule:evenodd"/><path d="M86 157.29a.66.66 0 0 0 0 .87.63.63 0 0 0 .85 0 .69.69 0 0 0 0-.92.66.66 0 0 0-.9.1M86.56 163.19l-.65-1.12 13.22-7.75s.77-.12 1 .35z" style="fill:#e0e0e0;fill-rule:evenodd"/><path d="M90.74 155c0 .06-.27.3-.46.72s-.19.8-.27.81-.22-.42 0-.93.71-.6.73-.6zM92.53 154.73c.06.05-.16.34-.21.77s.08.75 0 .79-.34-.3-.27-.85.44-.77.48-.71zM94.41 155.92c-.06.05-.35-.22-.42-.69s.16-.8.22-.77 0 .35.05.74.21.67.15.72zM89.62 153.51c0 .08-.35.18-.71.43s-.57.56-.64.52.06-.45.48-.75.87-.27.87-.2zM88.76 152.09a1.6 1.6 0 0 1-.68.43 4.84 4.84 0 0 1-.85.23 4.53 4.53 0 0 1-.52 0 .82.82 0 0 1-.31 0 .35.35 0 0 1-.25-.33.44.44 0 0 1 .2-.34 1.59 1.59 0 0 1 .27-.12 2.77 2.77 0 0 1 1.4-.1 1.32 1.32 0 0 1 .75.3s-.3-.08-.77-.11a3.2 3.2 0 0 0-.82 0 3.59 3.59 0 0 0-.47.12c-.17.06-.29.13-.28.22s0 0 .06.07h.22a4.4 4.4 0 0 0 1.3-.19q.36-.14.75-.24z" style="fill:#263339;fill-rule:evenodd"/><path d="M88.73 152.24s-.29-.13-.59-.54a2.43 2.43 0 0 1-.37-.8 2.36 2.36 0 0 1-.09-.52.64.64 0 0 1 .22-.61.36.36 0 0 1 .4 0 .83.83 0 0 1 .22.2 1.7 1.7 0 0 1 .29.46 1.88 1.88 0 0 1 .15.88c0 .52-.27.77-.29.75a6.31 6.31 0 0 0 .1-.76 1.9 1.9 0 0 0-.19-.77 1.22 1.22 0 0 0-.26-.38c-.11-.13-.23-.22-.28-.16a.47.47 0 0 0-.1.36 2.65 2.65 0 0 0 .07.48 2.91 2.91 0 0 0 .29.76c.23.41.46.62.43.65zM50.27 140.41 66 129.71 75.93 149l9-4.89S74.56 118.79 70.83 118c-2.09-.46-26.06 4.12-26.06 4.12l-2.68-1.34-6.79-.83-.42 1.1a23.17 23.17 0 0 0 .75 18.7l.34.68z" style="fill:#263339;fill-rule:evenodd"/><path d="M44.74 127c.12.53 13.15 12.72 13.15 12.72L50.38 165l11.2 2.14 11.25-30.39-20.56-20.2-9.41 3.93z" style="fill:#263339;fill-rule:evenodd"/><path d="M66 129.71s-3.47 2.48-7.81 5.44-7.9 5.3-7.93 5.26 3.46-2.49 7.8-5.44 7.94-5.31 7.94-5.26z" style="fill:#465b65;fill-rule:evenodd"/><path d="M74.08 145.43a4.45 4.45 0 0 1-.38-.58c-.23-.38-.55-.95-1-1.64-.78-1.4-1.83-3.35-2.93-5.52s-2.08-4.16-2.76-5.61c-.34-.72-.61-1.31-.8-1.72a3.54 3.54 0 0 1-.25-.64 4.36 4.36 0 0 1 .33.6l.85 1.7 2.86 5.59c1.09 2.16 2.12 4.13 2.87 5.54l.89 1.68a4.25 4.25 0 0 1 .31.6zM60.22 135.23a19.78 19.78 0 0 1-1.2 2.71 19.78 19.78 0 0 1-1.41 2.6 40.2 40.2 0 0 1 2.61-5.31z" style="fill:#465b65;fill-rule:evenodd"/><path d="m25 110.87-2.54 9.39a4.9 4.9 0 0 0 .42 3.62 4.93 4.93 0 0 0 5.45 2.46l20.16-5-2.12-4.19-15.88 1.38 1.7-6.46z" style="fill:#b78876;fill-rule:evenodd"/><path style="fill:#465b65;fill-rule:evenodd" d="m33.93 125.13.26-1.37 10.93-1.96 3.17-16.85 20.29-2.41-3.41 17.98-31.24 4.61z"/><path d="M57.4 114a1.15 1.15 0 0 1-1-.8 1.15 1.15 0 0 1 1.69-1.33 1.15 1.15 0 0 1 .53 1.2 1.07 1.07 0 0 1-1.22.93z" style="fill:#ebebeb;fill-rule:evenodd"/><path d="M36.89 76.81v1.22l.46 18.23a3.9 3.9 0 0 0 4.18 3.68 4.12 4.12 0 0 0 4.11-4v-4.6s2.89-.52 3.45-4.3a40.73 40.73 0 0 0-.05-7.47 4 4 0 0 0-4.44-3.66z" style="fill:#b78876;fill-rule:evenodd"/><path d="M47.62 81.68a.48.48 0 0 1-.46.49.46.46 0 0 1-.5-.42.49.49 0 0 1 .46-.5.47.47 0 0 1 .5.43zM48.44 81.18c-.06.07-.43-.2-.95-.2s-.9.28-1 .22 0-.15.2-.27a1.3 1.3 0 0 1 1.52 0c.2.12.25.22.23.25zM42.48 81.86a.48.48 0 0 1-.46.5.46.46 0 0 1-.5-.43.49.49 0 0 1 .8-.38.47.47 0 0 1 .16.31zM43.32 81.34c-.06.06-.43-.2-1-.2s-.9.28-1 .21 0-.14.19-.26a1.34 1.34 0 0 1 1.53 0c.25.11.31.22.28.25zM45.25 85.18a3.11 3.11 0 0 1 .85-.18c.13 0 .26 0 .28-.14a.66.66 0 0 0-.09-.39l-.41-1a17.14 17.14 0 0 1-.88-2.63 17 17 0 0 1 1.12 2.55l.39 1a.86.86 0 0 1 .08.52.34.34 0 0 1-.22.2h-.23a3.53 3.53 0 0 1-.89.07z" style="fill:#263339;fill-rule:evenodd"/><path d="M45.68 91.34a9.6 9.6 0 0 1-5.08-1.27s1.27 2.57 5 2.18z" style="fill:#ab6651;fill-rule:evenodd"/><path d="M43.52 80.48c-.05.14-.57 0-1.18.09s-1.12.19-1.19.06.06-.19.26-.32a1.88 1.88 0 0 1 .89-.26 1.81 1.81 0 0 1 .92.15c.22.1.33.22.3.28zM48.22 79.36c-.09.11-.45 0-.88 0s-.8.09-.89 0 0-.18.18-.29a1.27 1.27 0 0 1 1.42 0c.16.12.21.25.17.29z" style="fill:#263339;fill-rule:evenodd"/><path d="M45.2 87.06a.9.9 0 0 1-.46 0l-.42-.12-.4-.15a.86.86 0 0 1-.39-.23c-.09-.12-.07-.32.13-.5a1.1 1.1 0 0 1 1.7.56c.09.23-.02.38-.16.44z" style="fill:#ab6651;fill-rule:evenodd"/><path d="M45.27 87c-.05 0-.31-.49-.92-.64a2.17 2.17 0 0 0-1.1.12.55.55 0 0 1 .27-.24 1.29 1.29 0 0 1 1.62.41c.13.21.15.35.13.35zM41.26 74.36a4.76 4.76 0 0 1-.68 5.94c-.9.85-2.25 1.49-2.34 2.72s1.48 2.38 1.48 3.75-1.62 2.3-1.94 3.67a3.67 3.67 0 0 0 1.17 3 9.89 9.89 0 0 1 2.12 2.6 4.65 4.65 0 0 1-.07 3.68 11.69 11.69 0 0 1-2.12 3 14.41 14.41 0 0 0-3.5-.77c.08-.45.15-.9.23-1.35a1.24 1.24 0 0 1-.91 1.14 3.29 3.29 0 0 1-1.56 0 25.22 25.22 0 0 1-4.67-1.2 8.31 8.31 0 0 0 1.7-2.12 2.84 2.84 0 0 0 0-2.63c-.37-.63-1.06-1-1.4-1.69a2.81 2.81 0 0 1 .64-3A17.82 17.82 0 0 1 32 89.07a4 4 0 0 0 1.74-2.69c.09-1.43-1.07-2.73-.92-4.15.16-1.62 1.87-2.61 2.54-4.1.49-1.07.42-2.39 1.17-3.3a2.85 2.85 0 0 1 2.35-.94 5.33 5.33 0 0 1 2.44.85M46 91.75c-.68.37-.64 1.41-.23 2.06s1.08 1.13 1.5 1.79a3 3 0 0 1-.69 3.74l1.62.62.36-.2 1-.57-.47 1.16h1a3 3 0 0 0 2.45-4.73c-.42-.59-1.09-1.06-1.24-1.78-.17-.87.48-1.65.8-2.48a3.5 3.5 0 0 0-1.13-4" style="fill:#263339;fill-rule:evenodd"/><path d="M13.87 57.43a.57.57 0 0 1 .32.51v2.83a.56.56 0 0 1-.23.45.54.54 0 0 1-.49.09 1.8 1.8 0 0 0-1.38.21 1.5 1.5 0 0 0-.47 2.25 1.82 1.82 0 0 0 1.17.77A2.13 2.13 0 0 0 15 63.1a.56.56 0 0 1 1-.21.53.53 0 0 1 .12.55 3.26 3.26 0 0 1-3.47 2.22 2.91 2.91 0 0 1-1.92-1.25 2.64 2.64 0 0 1 .8-3.87 3 3 0 0 1 1.56-.42v-2.18a.58.58 0 0 1 .82-.51zM13.09 56.24a.47.47 0 0 1 .45-.47.47.47 0 0 1 0 .93.51.51 0 0 1-.34-.13.45.45 0 0 1-.11-.33z" style="fill:#1a4f8c;fill-rule:evenodd"/><path d="M26.91 71.36a.9.9 0 0 0-.37.12 1.75 1.75 0 0 0-.78.67 1.59 1.59 0 0 0-.24.67 1.43 1.43 0 0 0 .14.79 1.56 1.56 0 0 0 2.92-.16 1.49 1.49 0 0 0 .05-.81 1.61 1.61 0 0 0-.32-.64 1.71 1.71 0 0 0-.85-.58 2.46 2.46 0 0 0-.39-.07h.4a1.71 1.71 0 0 1 .91.57 1.68 1.68 0 0 1 .36.67 1.54 1.54 0 0 1 0 .85 1.81 1.81 0 0 1-.54.79 1.57 1.57 0 0 1-1.95.12 1.74 1.74 0 0 1-.64-.73 1.61 1.61 0 0 1-.14-.84 1.75 1.75 0 0 1 .27-.71 1.77 1.77 0 0 1 .85-.68H26.88zM31.05 75.46a1.12 1.12 0 0 0-.23.09 1.18 1.18 0 0 0-.49.42.92.92 0 0 0-.06.91 1 1 0 0 0 .94.57.94.94 0 0 0 .86-.68.9.9 0 0 0-.16-.89 1.19 1.19 0 0 0-.54-.37c-.15 0-.23 0-.23-.05a.53.53 0 0 1 .25 0 1.1 1.1 0 0 1 .81.78 1.06 1.06 0 0 1-2 .68.94.94 0 0 1-.08-.55 1 1 0 0 1 .17-.45 1.09 1.09 0 0 1 .54-.43.85.85 0 0 1 .22-.03zM26.24 63v-1.85c0-.2 0-.42-.05-.64a2.23 2.23 0 0 0 0-.36l-.19-.41a12.66 12.66 0 0 0-1.18-3.58 13.13 13.13 0 0 0-3-3.94l-.53-.46-.58-.43-.3-.21a2 2 0 0 0-.31-.2l-.65-.4-.33-.19-.35-.16-.71-.32-.75-.27-.31-.13-.2-.06h-.2a12.69 12.69 0 0 0-1.66-.39c-.28 0-.56-.08-.84-.09h-1.7c-.3 0-.59 0-.89.08a13.24 13.24 0 0 0-1.77.37l-.45.13a.6.6 0 0 0-.22.06l-.22.08L8 50c-.28.13-.56.28-.85.43a4.23 4.23 0 0 0-.42.22l-.42.26A13.46 13.46 0 0 0 4.71 52l-.71.71-.19.17-.16.19-.33.38-.32.37-.3.42-.29.43-.15.2c0 .08-.09.15-.13.22l-.52.91-.43.93a13 13 0 0 0-.64 8.21l.28 1 .37 1 .1.24.11.22.23.46.22.44.28.42.26.43.13.21.16.19.6.78a13.73 13.73 0 0 0 1.38 1.37l.36.32a4.61 4.61 0 0 0 .38.28c.26.19.51.38.78.55l.8.45.2.12.21.1.43.19a14.32 14.32 0 0 0 1.69.64c.29.09.58.14.85.21l.42.11h.43l.85.11h.84a11.66 11.66 0 0 0 1.67-.06h.4l.4-.07.78-.15.75-.21.38-.1.35-.14.7-.27a2.07 2.07 0 0 0 .34-.15l.33-.17.64-.33.59-.37a13.1 13.1 0 0 0 3.6-3.44l.32-.43.26-.45.26-.42.12-.21c0-.07.06-.15.1-.22l.38-.82c.11-.27.18-.53.27-.78l.13-.36a3.37 3.37 0 0 0 .1-.34l.15-.63c0-.19.09-.37.12-.54s.05-.31.07-.45.06-.47.08-.62a1.76 1.76 0 0 1 0-.21v.22l-.08.61a2.77 2.77 0 0 1-.06.46c0 .16-.07.35-.11.54s-.1.42-.15.63a1.54 1.54 0 0 1-.1.35q-.06.17-.12.36c-.09.24-.16.51-.27.78s-.25.54-.38.84l-.1.23a2.25 2.25 0 0 1-.12.21l-.25.43c-.09.13-.18.3-.27.45a4.5 4.5 0 0 1-.31.45 13.25 13.25 0 0 1-3.58 3.4l-.6.38-.64.33-.33.17a2.07 2.07 0 0 1-.34.15l-.71.28-.35.14-.38.1-.75.21c-.26.07-.53.1-.79.15L15 75h-.4a13.41 13.41 0 0 1-1.67.07 5.91 5.91 0 0 1-.85 0l-.85-.11a1.85 1.85 0 0 1-.42-.06l-.43-.1c-.29-.07-.58-.13-.87-.21a12.94 12.94 0 0 1-1.7-.65l-.42-.19-.21-.1-.18-.14-.85-.51c-.27-.17-.52-.37-.78-.55S5.1 72.3 5 72.2l-.36-.32a14.73 14.73 0 0 1-1.46-1.39l-.61-.78-.15-.2-.14-.22-.28-.42-.27-.42-.24-.45-.23-.46-.11-.23-.15-.25-.37-1c-.12-.32-.19-.66-.28-1A13.07 13.07 0 0 1 1 56.82l.43-.94L2 55a2.53 2.53 0 0 1 .13-.22l.15-.21.3-.42.29-.43.34-.38.32-.34.16-.18.19-.18.72-.68a14.46 14.46 0 0 1 1.59-1.14l.43-.26c.13-.09.28-.15.42-.23s.56-.29.85-.42l.88-.35.23-.13.22-.06.45-.13a13.87 13.87 0 0 1 1.79-.37c.3 0 .6 0 .89-.08h1.73a8 8 0 0 1 .84.1 11.08 11.08 0 0 1 1.64.33h.21a.73.73 0 0 1 .19.07l.38.13c.26.09.52.17.76.27l.76.37.35.16.34.19.65.38a3.37 3.37 0 0 1 .31.21l.3.22.59.42.53.47a13.15 13.15 0 0 1 3 4 12.33 12.33 0 0 1 1.16 3.6c0 .13 0 .26.06.37a2.2 2.2 0 0 1 0 .36c0 .23 0 .45.05.65s0 .38 0 .55v1.09z" style="fill:#263339;fill-rule:evenodd"/><path style="fill:#fff" d="M83.2.12h87.53V133H83.2z"/><path style="fill:#f5f5f5" d="M83.02 6.89h87.56v57.18H83.02z"/><path style="fill:#263339;fill-rule:evenodd" d="M104.41 72.15v1.27h1.87v.46h-1.87v1.51h-.53v-3.73h2.64v.49h-2.11zM109.26 74a1 1 0 1 0-1 1 .9.9 0 0 0 .69-.28.94.94 0 0 0 .31-.72zm-2.42 0a1.47 1.47 0 1 1 1.47 1.44 1.38 1.38 0 0 1-1-.4 1.39 1.39 0 0 1-.42-1zM112 72.55V73h-.12a.87.87 0 0 0-.67.27.83.83 0 0 0-.21.73v1.4h-.52v-2.83h.5V73a1.08 1.08 0 0 1 1-.49zM114.81 73.91a1 1 0 1 0-1 .91 1 1 0 0 0 1-.91zm.5-1.34V75a1.28 1.28 0 0 1-1.46 1.45 2.09 2.09 0 0 1-1.35-.45l.24-.4a1.66 1.66 0 0 0 1.09.37c.66 0 1-.31 1-1v-.22a1.3 1.3 0 0 1-1 .42 1.37 1.37 0 0 1-1.25-2.07 1.36 1.36 0 0 1 1.25-.66 1.26 1.26 0 0 1 1 .46v-.42zM118.45 74a1 1 0 0 0-1.91.06.94.94 0 0 0 1 .93.9.9 0 0 0 .69-.28.94.94 0 0 0 .26-.71zM116 74a1.48 1.48 0 0 1 2.51-1.08 1.5 1.5 0 0 1 .33 1.61 1.48 1.48 0 0 1-1.36.91 1.36 1.36 0 0 1-1-.4 1.4 1.4 0 0 1-.43-1zM121.26 75.23a.92.92 0 0 1-.62.2.79.79 0 0 1-.89-.88V73h-.49v-.43h.5V72h.51v.62h.81V73h-.81v1.53a.44.44 0 0 0 .11.33.43.43 0 0 0 .32.14.73.73 0 0 0 .4-.13zM125.72 74a1 1 0 1 0-1 1 .93.93 0 0 0 1-1zm.52 0a1.37 1.37 0 0 1-1.43 1.44 1.17 1.17 0 0 1-1-.46v1.46h-.52v-3.87h.5V73a1.19 1.19 0 0 1 1-.48 1.36 1.36 0 0 1 1 .41 1.34 1.34 0 0 1 .4 1zM128.65 74.54v-.39h-.79c-.51 0-.65.2-.65.42s.23.46.62.46a.83.83 0 0 0 .84-.49zm.51-.84v1.69h-.49V75a1.06 1.06 0 0 1-.93.42c-.64 0-1-.34-1-.85s.29-.82 1.13-.82h.84v-.1c0-.42-.26-.68-.76-.68a1.37 1.37 0 0 0-.89.3l-.22-.38a1.9 1.9 0 0 1 1.17-.37 1.06 1.06 0 0 1 1.15 1.18zM129.75 75.12l.22-.43a1.82 1.82 0 0 0 1 .29c.47 0 .67-.14.67-.38 0-.63-1.79-.08-1.79-1.21 0-.5.46-.85 1.18-.85a2.16 2.16 0 0 1 1 .26l-.22.4a1.46 1.46 0 0 0-.81-.2c-.45 0-.67.16-.67.39 0 .66 1.79.12 1.79 1.22 0 .51-.47.85-1.22.85a2.11 2.11 0 0 1-1.17-.32zM132.43 75.12l.21-.43a1.82 1.82 0 0 0 1 .29c.47 0 .67-.14.67-.38 0-.63-1.79-.08-1.79-1.21 0-.5.46-.85 1.18-.85a2.16 2.16 0 0 1 1 .26l-.22.4a1.43 1.43 0 0 0-.81-.22c-.45 0-.67.16-.67.39 0 .66 1.79.12 1.79 1.22 0 .51-.46.85-1.22.85a2.05 2.05 0 0 1-1.16-.32zM139.69 72.57l-1.05 2.83h-.49l-.82-2.12-.83 2.12h-.49l-1.06-2.83h.5l.83 2.25.84-2.25h.43l.85 2.26.84-2.26h.45zM142.27 74a1 1 0 1 0-.94 1 .9.9 0 0 0 .69-.28.93.93 0 0 0 .25-.72zm-2.42 0a1.48 1.48 0 0 1 .89-1.37 1.46 1.46 0 0 1 1.61.3 1.48 1.48 0 0 1 .33 1.6 1.47 1.47 0 0 1-1.35.91 1.39 1.39 0 0 1-1.06-.4 1.43 1.43 0 0 1-.42-1zM145 72.55V73h-.12a.88.88 0 0 0-.67.27.87.87 0 0 0-.21.73v1.4h-.5v-2.83h.5V73a1.08 1.08 0 0 1 1-.49zM147.78 74a1 1 0 1 0-.95 1 .93.93 0 0 0 .95-1zm.51-2.55v4h-.49V75a1.19 1.19 0 0 1-1 .48 1.44 1.44 0 0 1 0-2.88 1.16 1.16 0 0 1 1 .45v-1.61zM149.91 75.09a.35.35 0 1 1 .35.31.35.35 0 0 1-.35-.31zm1-2.44c0-.34-.28-.57-.76-.57a1.15 1.15 0 0 0-.95.42l-.39-.27a1.66 1.66 0 0 1 1.38-.6c.77 0 1.27.36 1.27 1 0 .89-.94 1-.94 1.65H150c0-.89.92-1.01.92-1.63z"/><ellipse cx="128.08" cy="83.16" rx="33.5" ry=".21" style="fill:#010101"/><path d="M147.27 86.74c0 .12-8.59.21-19.2.21s-19.2-.09-19.2-.21 8.6-.21 19.2-.21 19.2.07 19.2.21z" style="fill:#010101;fill-rule:evenodd"/><path d="M139.69 28.68a2.93 2.93 0 1 1-4.14-.14 2.93 2.93 0 0 1 4.14.14zm1.53 12.55a10.21 10.21 0 1 0-15.84-2.42l-2.08 1.94.5 3.45-3.23-.88-2.57 2.42.51 3.43-3.22-.91-2.29 2.09.3 2.12-2-.56-1.29 1.22-.2 3.19 4.76 1.2L130.1 43.1a10.2 10.2 0 0 0 11.12-1.87z" style="fill:#263339;fill-rule:evenodd"/><path d="M139.69 28.68a3.85 3.85 0 0 0-.58-.42 2.9 2.9 0 0 0-1.84-.41 2.82 2.82 0 1 0 3.08 3.3 2.92 2.92 0 0 0-.28-1.86 4.82 4.82 0 0 0-.38-.61s.06 0 .14.12a2 2 0 0 1 .33.43 2.91 2.91 0 0 1 .36 1.94 3 3 0 0 1-1.24 2 3 3 0 0 1-4.1-4.4 3 3 0 0 1 2.07-1.1 3 3 0 0 1 1.92.5 2.79 2.79 0 0 1 .42.35c.1.1.13.16.1.16z" style="fill:#263339;fill-rule:evenodd"/><path d="m141.22 41.23-.15.14-.45.43a11 11 0 0 1-2 1.27 10.28 10.28 0 0 1-8.61.12h.09l-15.4 14.44h-.07l-4.76-1.19h-.1v-.1c.06-1 .13-2.08.19-3.19v-.1l1.32-1.23h.07l2 .55-.16.14c-.1-.66-.2-1.38-.31-2.12v-.07l2.24-2.09h.06l3.23.91-.16.14-.5-3.45v-.23l.69-.65 1.91-1.78v-.05h.07l3.23.91-.16.14c-.17-1.17-.33-2.32-.5-3.45v-.07h.05l2.08-1.94v.15a10.4 10.4 0 0 1-1.12-4.74 9.36 9.36 0 0 1 .17-2.36 9.51 9.51 0 0 1 .68-2.22 10.29 10.29 0 0 1 19.69 4.93 10 10 0 0 1-1.15 3.93c-.06.13-.13.25-.19.37l-.21.32a5.83 5.83 0 0 1-.39.58c-.27.33-.48.63-.69.85l-.51.56-.17.15.15-.17.46-.48c.2-.22.42-.52.67-.85.13-.18.24-.38.38-.58s.13-.21.2-.33l.19-.36a10.12 10.12 0 1 0-18.92-6.54 9.4 9.4 0 0 0-.16 2.31 10.18 10.18 0 0 0 1.3 4.53l.05.09-.08.06-2.07 1.94v-.11c.16 1.13.33 2.28.49 3.45v.19l-.19-.05-3.22-.9h.12l-1.91 1.78-.68.63v-.11c.17 1.18.34 2.36.49 3.45v.19l-.19-.05-3.22-.91h.12l-2.24 2.09.05-.11c.1.72.2 1.44.3 2.12v.19l-.18-.06-2-.55h.11l-1.3 1.22v-.08c-.07 1.1-.14 2.19-.2 3.19l-.09-.12 4.77 1.2h-.11L130 43h.05a10.2 10.2 0 0 0 8.51-.06 11.17 11.17 0 0 0 2-1.21l.46-.39z" style="fill:#263339;fill-rule:evenodd"/><path d="M139.37 27.52a2.92 2.92 0 1 1-2-.93 2.94 2.94 0 0 1 2 .93zm1.51 12.56A10.21 10.21 0 1 0 125 37.65l-2 1.93.49 3.46-3.22-.91-2.6 2.43.5 3.45-3.22-.91-2.24 2.09.3 2.12-2-.55-1.29 1.24-.19 3.2 4.76 1.19L129.74 42a10.23 10.23 0 0 0 11.14-1.87z" style="fill:#1a4f8c;fill-rule:evenodd"/><path d="M139.37 27.52a3.85 3.85 0 0 0-.58-.42 3 3 0 0 0-1.84-.43A2.82 2.82 0 1 0 140 30a2.86 2.86 0 0 0-.28-1.86 6 6 0 0 0-.37-.61l.14.12a2.29 2.29 0 0 1 .32.43 2.86 2.86 0 0 1 .39 1.92 3 3 0 0 1-6-.11 3 3 0 0 1 2.73-3.36 2.88 2.88 0 0 1 1.91.5 2.44 2.44 0 0 1 .43.35 1.14 1.14 0 0 1 .1.14z" style="fill:#263339;fill-rule:evenodd"/><path d="m140.88 40.08-.15.14-.45.4a11 11 0 0 1-2 1.27 10.28 10.28 0 0 1-8.61.12h.08l-15.39 14.44h-.06l-4.76-1.19h-.1v-.09c.06-1 .13-2.09.19-3.2l1.3-1.21h.07l2 .55-.16.14c-.09-.66-.19-1.38-.3-2.12v-.07l2.28-2.26H114.94l3.23.91-.17.09-.5-3.44V44.44l.69-.64 1.9-1.78h.13l3.22.91-.16.14c-.17-1.17-.33-2.31-.5-3.45v-.07l2.22-1.98v.15a10.29 10.29 0 0 1-1.33-4.66 9.85 9.85 0 0 1 .17-2.36 10 10 0 0 1 .68-2.22 10.28 10.28 0 0 1 19.69 4.93 10.08 10.08 0 0 1-1.21 3.93l-.19.36-.21.32c-.14.21-.25.43-.38.59-.28.33-.49.62-.7.84l-.49.47-.16.16.15-.17.45-.49a10.55 10.55 0 0 0 .68-.84c.12-.17.24-.38.37-.59l.21-.32.18-.36a10.12 10.12 0 1 0-18.25-8.73 9.87 9.87 0 0 0-.66 2.17 9.43 9.43 0 0 0-.16 2.31 10.09 10.09 0 0 0 1.3 4.54v.08l-.08.07-2.07 1.94v-.11c.17 1.13.34 2.28.5 3.44v.2l-.19-.06-3.23-.9h.12L118.4 44l-.69.64v-.11c.17 1.18.34 2.35.49 3.45v.19h-.18l-3.23-.9h.12l-2.23 2.08v-.11c.1.73.2 1.44.3 2.1v.19l-.18-.05-2-.55h.11L109.78 52v-.08c-.07 1.1-.13 2.2-.2 3.19l-.09-.12 4.77 1.2h-.11l15.48-14.39h.05a10.27 10.27 0 0 0 8.51-.06 11.79 11.79 0 0 0 2-1.21l.46-.39z" style="fill:#263339;fill-rule:evenodd"/><path d="M139.94 39.28a14.26 14.26 0 0 0 1.37-1.73 8.55 8.55 0 0 0 1.05-2.35 9 9 0 0 0 .29-3.39 8.91 8.91 0 0 0-1.34-3.87 9 9 0 0 0-3.47-3.14 8.56 8.56 0 0 0-2.41-.81 9.73 9.73 0 0 0-1.31-.15 9 9 0 0 0-9 7.21 10 10 0 0 0-.16 1.34 9.5 9.5 0 0 0 .04 1.31 8.51 8.51 0 0 0 .65 2.47 8.89 8.89 0 0 0 2.89 3.67 9 9 0 0 0 7.15 1.56 8.39 8.39 0 0 0 2.42-.89 13.27 13.27 0 0 0 1.82-1.24l-.1.1-.32.29a4.69 4.69 0 0 1-.55.42 6.09 6.09 0 0 1-.8.52 8.82 8.82 0 0 1-2.44.94 9 9 0 0 1-10.29-5.28 8.66 8.66 0 0 1-.67-2.55 8.38 8.38 0 0 1 .08-2.69 9.05 9.05 0 0 1 7.88-7.35 9.2 9.2 0 0 1 5.2.94 9.09 9.09 0 0 1 4.57 10.65 8.7 8.7 0 0 1-1.11 2.37 6 6 0 0 1-.57.76 4.5 4.5 0 0 1-.46.52l-.31.29z" style="fill:#263339;fill-rule:evenodd"/><path d="M139.53 32a7.45 7.45 0 0 0 .49-.67 3.44 3.44 0 0 0 .49-2.17 3.31 3.31 0 0 0-1.82-2.61 3.27 3.27 0 0 0-1.89-.34 3.32 3.32 0 0 0-2.67 4.58 3.38 3.38 0 0 0 2.49 2 3.33 3.33 0 0 0 2.19-.34c.48-.25.7-.47.72-.45s-.05.07-.16.16a2.12 2.12 0 0 1-.51.38 3.45 3.45 0 0 1-3.77-.2 3.53 3.53 0 0 1 1.68-6.34 3.48 3.48 0 0 1 2 .36 3.59 3.59 0 0 1 1.37 1.28 3.46 3.46 0 0 1-.06 3.77 2.85 2.85 0 0 1-.43.49c-.06.1-.12.1-.12.1zM113 55.78c0-.05 3.43-3.39 7.77-7.43s7.9-7.29 8-7.23-3.43 3.39-7.77 7.42-7.92 7.29-8 7.24z" style="fill:#263339;fill-rule:evenodd"/><path d="m115 35.54.14-.31.19.29a1.43 1.43 0 0 0 .62.52l.32.14-.29.2a1.36 1.36 0 0 0-.53.61l-.14.32-.19-.29a1.59 1.59 0 0 0-.62-.53l-.32-.14.29-.19a1.39 1.39 0 0 0 .53-.62zM105.49 33.19l.08-.19.11.17a.81.81 0 0 0 .36.3l.18.09-.17.11a.81.81 0 0 0-.3.36l-.08.18-.11-.17a.87.87 0 0 0-.36-.3l-.19-.09.17-.1a1 1 0 0 0 .31-.36zM135.28 49.31l.08-.18.11.17a.87.87 0 0 0 .36.3l.19.08-.17.11a.87.87 0 0 0-.3.36l-.09.19-.11-.17a.9.9 0 0 0-.36-.31l-.18-.08.17-.11a.81.81 0 0 0 .3-.36zM149.87 41l.14-.31.19.29a1.43 1.43 0 0 0 .62.52l.31.14-.29.19a1.49 1.49 0 0 0-.52.62l-.15.32-.18-.29a1.59 1.59 0 0 0-.62-.53l-.32-.14.29-.19a1.46 1.46 0 0 0 .53-.62zM148 29.46l.24-.53.32.49a2.42 2.42 0 0 0 1 .88l.53.24-.49.31a2.53 2.53 0 0 0-.89 1l-.23.53-.32-.49a2.56 2.56 0 0 0-1-.89l-.53-.23.49-.32a2.54 2.54 0 0 0 .88-1zM112 25.89l.24-.53.32.48a2.4 2.4 0 0 0 1 .89l.53.24-.48.31a2.49 2.49 0 0 0-.89 1l-.23.53-.32-.48a2.49 2.49 0 0 0-1-.89l-.53-.23.48-.32a2.49 2.49 0 0 0 .89-1z" style="fill:#1a4f8c;fill-rule:evenodd"/><path d="M157 106.62a3.83 3.83 0 0 0 .39 0 2.14 2.14 0 0 0 .5-.06h.31l.35-.09a5.84 5.84 0 0 0 1.73-.77 6.12 6.12 0 0 0 2.46-3.22 6.35 6.35 0 0 0 .28-1.67V99.43a3.54 3.54 0 0 0-.07-.47 5.92 5.92 0 0 0-.68-1.87 6 6 0 0 0-3.33-2.75 6.64 6.64 0 0 0-2.38-.31H154L99.13 94a6 6 0 0 0-3.65 1.24 6.54 6.54 0 0 0-1.32 1.41 6.43 6.43 0 0 0-1 2.69v1a6.13 6.13 0 0 0 1 3.58 6.61 6.61 0 0 0 1.28 1.36 6.29 6.29 0 0 0 2.48 1.16 7.21 7.21 0 0 0 .92.11h56.61-56.63a7.31 7.31 0 0 1-.94-.11 6.83 6.83 0 0 1-.91-.27 5.82 5.82 0 0 1-1.67-.93 6.12 6.12 0 0 1-2.12-3.18 7 7 0 0 1-.24-1.94 8 8 0 0 1 0-1 6.52 6.52 0 0 1 .19-1 6 6 0 0 1 .87-1.67A6.34 6.34 0 0 1 95.36 95a6.17 6.17 0 0 1 3.78-1.27h57.43a6.93 6.93 0 0 1 2.43.32 6.12 6.12 0 0 1 4.07 4.73l.07.48v1.4a5.71 5.71 0 0 1-.29 1.69 6.08 6.08 0 0 1-.67 1.41 6.1 6.1 0 0 1-3.6 2.61l-.35.08h-.32a2.7 2.7 0 0 1-.49 0z" style="fill:#263339;fill-rule:evenodd"/><path d="M93 115.72v-.29a6.08 6.08 0 0 1 6.08-6.08H157a6.08 6.08 0 0 1 6.08 6.08v.57a6.08 6.08 0 0 1-6.08 6.1H99.12A6.08 6.08 0 0 1 93 116z" style="fill:#1a4f8c;fill-rule:evenodd"/><path d="M107.11 102.79a2.41 2.41 0 0 1 0-.38v-4.67l.09.08h-7.58l.11-.11v5.07l-.1-.1h7.58a3.25 3.25 0 0 1-.54 0H99.48v-4.96c-.09.09.14-.14.11-.12h7.67v4.82c0 .25-.14.26-.15.37z" style="fill:#263339;fill-rule:evenodd"/><path d="M107.11 97.71a10.12 10.12 0 0 1-1.06 1c-.67.61-1.61 1.44-2.66 2.35h-.16l-.1-.09-.19-.16-.37-.33-.71-.62-1.18-1.06a10.26 10.26 0 0 1-1.06-1 8.67 8.67 0 0 1 1.14.88l1.22 1 .72.61.38.32.19.17.09.09h-.13c1-.91 2-1.7 2.7-2.3a9.2 9.2 0 0 1 1.18-.87z" style="fill:#263339;fill-rule:evenodd"/><path d="M102.27 100.07a15.85 15.85 0 0 1-2.72 2.71 8.68 8.68 0 0 1 1.27-1.44 8.8 8.8 0 0 1 1.45-1.27zM107.11 102.79a8.33 8.33 0 0 1-1.36-1.36 8.65 8.65 0 0 1-1.2-1.51 16.92 16.92 0 0 1 2.56 2.87zM111.68 101.26v.17h-1.76v-2.54h1.7v.17h-1.52v1h1.36v.17h-1.36v1.04l1.58-.01zM115.43 100.32v1.11h-.19v-1.09c0-.43-.22-.66-.59-.66a.69.69 0 0 0-.52.21.65.65 0 0 0-.17.53v1h-.19v-1.09c0-.43-.22-.66-.59-.66a.68.68 0 0 0-.52.21.69.69 0 0 0-.18.53v1h-.18v-1.9h.18v.49a.76.76 0 0 1 .73-.42.67.67 0 0 1 .69.46.79.79 0 0 1 .77-.46.66.66 0 0 1 .56.22.71.71 0 0 1 .2.52zM117.36 100.87v-.36h-.64c-.4 0-.53.17-.53.39s.19.4.52.4a.64.64 0 0 0 .65-.43zm.19-.64v1.2h-.18v-.34a.73.73 0 0 1-.68.36c-.43 0-.69-.22-.69-.55s.19-.53.71-.53h.65v-.15a.49.49 0 0 0-.14-.41.53.53 0 0 0-.42-.13 1 1 0 0 0-.66.24l-.09-.14a1.19 1.19 0 0 1 .76-.26.63.63 0 0 1 .54.17.65.65 0 0 1 .2.54zM118.29 99.53h.43v1.9h-.39zm-.05-.54a.21.21 0 1 1 .42 0 .21.21 0 1 1-.42 0z" style="fill:#263339;fill-rule:evenodd"/><path style="fill:#263339" d="M119.24 98.73h.42v2.71h-.42z"/><path d="M113.15 116.31c.61 0 .94-.29.94-.78s-.33-.78-.94-.78h-.83v1.56zm1 1.13-.68-1a1.31 1.31 0 0 1-.28 0h-.83v.94h-.19v-2.86h1c.72 0 1.16.36 1.16 1a.88.88 0 0 1-.67.9l.72 1zM115 116.25h1.64a.82.82 0 1 0-1.64 0zm1.84.16H115a.89.89 0 0 0 .27.63.84.84 0 0 0 .64.22.88.88 0 0 0 .69-.3l.12.14a1 1 0 0 1-.81.35 1.06 1.06 0 0 1-1.11-1.09 1 1 0 0 1 1.56-1 1 1 0 0 1 .49 1zM117.14 117.18l.1-.17a1.26 1.26 0 0 0 .77.26c.45 0 .64-.16.64-.4 0-.63-1.43-.16-1.43-1 0-.32.27-.58.81-.58a1.27 1.27 0 0 1 .74.2l-.1.17a1 1 0 0 0-.64-.19c-.42 0-.6.17-.6.4 0 .64 1.42.19 1.42 1 0 .34-.3.58-.85.58a1.4 1.4 0 0 1-.86-.27zM119.4 116.25h1.6a.82.82 0 0 0-1.64 0zm1.84.16h-1.85a.89.89 0 0 0 .27.63.83.83 0 0 0 .64.22.88.88 0 0 0 .69-.3l.11.14a1 1 0 0 1-.81.35 1.1 1.1 0 0 1-.79-.3 1.07 1.07 0 0 1-.31-.79 1 1 0 0 1 .28-.77 1 1 0 0 1 .75-.32 1 1 0 0 1 .74.32 1 1 0 0 1 .28.76zM122.94 117.3a.66.66 0 0 1-.42.15.52.52 0 0 1-.43-.15.5.5 0 0 1-.15-.43v-1.4h-.4v-.18h.4v-.47h.2v.47h.68v.18h-.68v1.38c0 .28.13.42.4.42a.44.44 0 0 0 .33-.11zM126.61 115.53c0-.5-.33-.78-.94-.78h-.82v1.56h.83c.6 0 .93-.31.93-.78zm.21 0c0 .6-.42 1-1.15 1h-.82v1h-.21v-2.89h1c.75-.09 1.18.28 1.18.89zM128.79 116.8v-.4h-.73c-.45 0-.6.19-.6.42s.21.45.59.45a.72.72 0 0 0 .74-.47zm.2-.73v1.37h-.19v-.39a.82.82 0 0 1-.78.4c-.48 0-.77-.24-.77-.61s.21-.6.8-.6h.74v-.17a.57.57 0 0 0-.17-.46.54.54 0 0 0-.47-.15 1.08 1.08 0 0 0-.74.27l-.1-.15a1.32 1.32 0 0 1 .85-.3.69.69 0 0 1 .61.19.68.68 0 0 1 .23.6zM129.52 117.18l.09-.17a1.26 1.26 0 0 0 .77.26c.46 0 .63-.16.63-.4 0-.63-1.42-.16-1.42-1 0-.32.27-.58.82-.58a1.26 1.26 0 0 1 .73.2l-.09.17a1.08 1.08 0 0 0-.65-.19c-.42 0-.6.17-.6.4 0 .64 1.42.19 1.42 1 0 .34-.3.58-.85.58a1.29 1.29 0 0 1-.85-.27zM131.49 117.18l.09-.17a1.26 1.26 0 0 0 .77.26c.46 0 .64-.16.64-.4 0-.63-1.43-.16-1.43-1 0-.32.28-.58.82-.58a1.29 1.29 0 0 1 .74.2l-.1.17a1.08 1.08 0 0 0-.65-.19c-.42 0-.6.17-.6.4 0 .64 1.42.19 1.42 1 0 .34-.3.58-.85.58a1.37 1.37 0 0 1-.85-.27zM136.79 115.29l-.81 2.15h-.2l-.72-1.87-.73 1.87h-.18l-.82-2.15h.2l.71 1.92.74-1.92h.17l.73 1.91.72-1.91h.19zM138.91 116.36a.85.85 0 0 0-1.7.07.85.85 0 0 0 1.47.57.87.87 0 0 0 .23-.64zm-1.94 0a1.08 1.08 0 1 1 1.07 1.09 1 1 0 0 1-.77-.31 1.08 1.08 0 0 1-.27-.78zM140.77 115.28v.2h-.05c-.48 0-.76.31-.76.84v1.12h-.2v-2.15h.24v.47a.81.81 0 0 1 .82-.48zM143 116.36a.85.85 0 0 0-.89-.79.84.84 0 0 0-.81.86.85.85 0 0 0 1.47.57.87.87 0 0 0 .23-.64zm.2-2v3h-.2v-.51a1 1 0 0 1-.88.52 1.09 1.09 0 0 1 0-2.17 1 1 0 0 1 .88.51v-1.4z" style="fill:#fff;fill-rule:evenodd"/><path d="M170.58 7c0 .11-19.6.21-43.78.21S83 7.1 83 7s19.6-.21 43.78-.21 43.8.08 43.8.21zM88 3.41a1.06 1.06 0 1 1-.31-.76 1 1 0 0 1 .31.76zM91 3.41a1.06 1.06 0 0 1-1 1.06 1.07 1.07 0 1 1 0-2.13 1.06 1.06 0 0 1 .75.31 1.08 1.08 0 0 1 .25.76zM94.1 3.41a1.06 1.06 0 1 1-2-.42 1.07 1.07 0 0 1 1-.65 1.05 1.05 0 0 1 1 1.07z" style="fill:#263339;fill-rule:evenodd"/><path d="M170.73 133c0-.91 0-54.67-.1-132.87l.1.1H83.05l.11-.11v132.87l-.09-.08 87.69.08-87.69.09H83V0h87.9v.1c-.12 78.22-.17 131.99-.17 132.9z" style="fill:#263339;fill-rule:evenodd"/><path d="M169.13 168.82a.87.87 0 0 0-.07-.17c-.06-.13-.14-.29-.23-.5a11.71 11.71 0 0 1-.69-2 17.57 17.57 0 0 1 .06-7.67 41.43 41.43 0 0 1 1.42-5.16c.6-1.83 1.31-3.77 1.88-5.87a23 23 0 0 0 .93-6.76 26.5 26.5 0 0 0-1.58-7.14 35 35 0 0 1-1.82-7 10.74 10.74 0 0 1 1.28-6.5c1-1.9 2.32-3.52 3.29-5.2a18.38 18.38 0 0 0 2-5 18.74 18.74 0 0 0 .12-7.75 15.26 15.26 0 0 0-.8-2.73 1.16 1.16 0 0 0 0 .18c.05.13.1.31.17.53a20.23 20.23 0 0 1 .5 2 18.93 18.93 0 0 1-.2 7.68 17.66 17.66 0 0 1-2 4.94c-1 1.66-2.26 3.27-3.31 5.19a10.87 10.87 0 0 0-1.33 6.63 34.71 34.71 0 0 0 1.82 7.09 26.32 26.32 0 0 1 1.57 7.07 22.6 22.6 0 0 1-.91 6.69c-.56 2.09-1.27 4-1.85 5.86a40.57 40.57 0 0 0-1.4 5.19 17.49 17.49 0 0 0 0 7.74 12.7 12.7 0 0 0 .73 2l.26.49a.91.91 0 0 0 .16.17z" style="fill:#263339;fill-rule:evenodd"/><path d="M172.3 116.47s2-6.29-1.56-10a.21.21 0 0 0-.22-.07.24.24 0 0 0-.16.18c-.18 1.07-.42 4.23 1.94 9.89z" style="fill:#1a4f8c;fill-rule:evenodd"/><path d="M171.12 108.61a5.66 5.66 0 0 0 .14 1.16c.12.81.28 1.74.44 2.78s.32 2 .43 2.77a5.55 5.55 0 0 0 .21 1.15 5.1 5.1 0 0 0 0-1.17c-.07-.71-.19-1.69-.37-2.79s-.37-2.06-.52-2.77a5.69 5.69 0 0 0-.33-1.13z" style="fill:#263339;fill-rule:evenodd"/><path d="M170 131.31s-1.2-6.48-6-8.09a.27.27 0 0 0-.23 0 .23.23 0 0 0-.05.22c.28 1.06 1.54 3.97 6.28 7.87z" style="fill:#1a4f8c;fill-rule:evenodd"/><path d="M165.26 124.9a6.29 6.29 0 0 0 .66 1l1.7 2.24c.63.85 1.2 1.61 1.69 2.25a8.11 8.11 0 0 0 .72.92 5.11 5.11 0 0 0-.57-1c-.4-.6-1-1.42-1.64-2.3s-1.27-1.64-1.75-2.2a5.43 5.43 0 0 0-.81-.85z" style="fill:#263339;fill-rule:evenodd"/><path d="M171.3 147.57s.73-6.55-3.44-9.49a.2.2 0 0 0-.22 0 .21.21 0 0 0-.12.19c.01 1.04.38 4.19 3.78 9.3z" style="fill:#1a4f8c;fill-rule:evenodd"/><path d="M168.64 140.06a5.59 5.59 0 0 0 .35 1.12l1 2.63c.36 1 .68 1.88 1 2.64a6.82 6.82 0 0 0 .42 1.09 4.47 4.47 0 0 0-.25-1.14c-.2-.69-.52-1.64-.9-2.67s-.75-2-1-2.62a5.1 5.1 0 0 0-.51-1.05z" style="fill:#263339;fill-rule:evenodd"/><path d="M167.65 163.93s.5-6.58-3.77-9.37a.21.21 0 0 0-.23 0 .21.21 0 0 0-.11.2c.05 1.04.53 4.18 4.11 9.17z" style="fill:#1a4f8c;fill-rule:evenodd"/><path d="M164.71 156.52a7.31 7.31 0 0 0 .39 1.11l1.07 2.6c.4 1 .75 1.85 1.05 2.6a5.35 5.35 0 0 0 .47 1.07 4.85 4.85 0 0 0-.31-1.13c-.22-.68-.57-1.62-1-2.64s-.82-1.92-1.13-2.58a5.1 5.1 0 0 0-.55-1z" style="fill:#263339;fill-rule:evenodd"/><path d="M175.13 110.94s5.84-3 6-8.15a.24.24 0 0 0-.12-.2.24.24 0 0 0-.23 0c-.9.62-3.31 2.68-5.65 8.35z" style="fill:#1a4f8c;fill-rule:evenodd"/><path d="M179.88 104.55a4.56 4.56 0 0 0-.73.91l-1.65 2.27-1.66 2.27a7.1 7.1 0 0 0-.66 1 5 5 0 0 0 .8-.85c.46-.56 1.08-1.35 1.7-2.24s1.2-1.7 1.59-2.33a5.69 5.69 0 0 0 .61-1z" style="fill:#263339;fill-rule:evenodd"/><path d="M168.86 124.46s6-2.7 6.45-7.79a.22.22 0 0 0-.1-.21.24.24 0 0 0-.23 0c-.92.54-3.44 2.48-6.12 8z" style="fill:#1a4f8c;fill-rule:evenodd"/><path d="M174 118.36a5.7 5.7 0 0 0-.78.85l-1.79 2.17-1.78 2.17a7.19 7.19 0 0 0-.73.92 4.61 4.61 0 0 0 .85-.8c.5-.53 1.15-1.27 1.85-2.12s1.3-1.64 1.73-2.22a5.3 5.3 0 0 0 .65-1z" style="fill:#263339;fill-rule:evenodd"/><path d="M172.32 139.53s4.13-5.14 2.19-9.86a.24.24 0 0 0-.18-.14.25.25 0 0 0-.21.1c-.55.9-1.93 3.76-1.8 9.9z" style="fill:#1a4f8c;fill-rule:evenodd"/><path d="M174.1 131.76a5.54 5.54 0 0 0-.3 1.13c-.17.79-.37 1.72-.6 2.75l-.6 2.74a6.33 6.33 0 0 0-.23 1.15 4.37 4.37 0 0 0 .39-1.1c.21-.7.45-1.66.68-2.74s.43-2.05.53-2.77a5 5 0 0 0 .13-1.16z" style="fill:#263339;fill-rule:evenodd"/><path d="M168.22 157.26s6-2.79 6.31-7.88a.2.2 0 0 0-.1-.2.24.24 0 0 0-.23 0c-.89.56-3.39 2.52-5.98 8.08z" style="fill:#1a4f8c;fill-rule:evenodd"/><path d="M173.24 151.08a5.79 5.79 0 0 0-.76.88l-1.75 2.2c-.65.82-1.24 1.57-1.75 2.2a7.14 7.14 0 0 0-.71.93 4.72 4.72 0 0 0 .85-.82c.49-.53 1.13-1.29 1.81-2.16s1.27-1.66 1.7-2.25a4.73 4.73 0 0 0 .61-.98zM156.33 131.35v.56c0 .4 0 .94.07 1.6.08 1.41.19 3.37.32 5.71a22.05 22.05 0 0 0 3.27 7.6c1.2 1.89 2.45 3.61 3.54 5.21a37.42 37.42 0 0 1 2.64 4.38 17.89 17.89 0 0 1 1.24 3.21c.11.4.19.7.23.91a1.68 1.68 0 0 0 .09.32v-.33c0-.11-.09-.52-.18-.92a17.25 17.25 0 0 0-1.18-3.27 34.6 34.6 0 0 0-2.62-4.43c-1.07-1.61-2.32-3.33-3.51-5.21a22.67 22.67 0 0 1-3.28-7.51c-.16-2.34-.3-4.3-.4-5.7-.05-.67-.1-1.2-.13-1.6v-.42a.36.36 0 0 0-.1-.11z" style="fill:#263339;fill-rule:evenodd"/><path d="M159.88 146.35s-2.54-6.09.66-10.08a.2.2 0 0 1 .21-.08.21.21 0 0 1 .17.16c.28 1 .82 4.13-1.04 10z" style="fill:#1a4f8c;fill-rule:evenodd"/><path d="M160.35 138.39a5 5 0 0 0-.2 1.15c-.09.71-.19 1.69-.28 2.8s-.11 2.09-.11 2.82a4.5 4.5 0 0 0 .07 1.16 6.41 6.41 0 0 0 .1-1.16c.06-.81.12-1.75.19-2.8s.14-2 .2-2.81a5.65 5.65 0 0 0 .03-1.16z" style="fill:#263339;fill-rule:evenodd"/><path d="M159.88 146.35s-2.54-6.09.66-10.08a.2.2 0 0 1 .21-.08.21.21 0 0 1 .17.16c.28 1 .82 4.13-1.04 10z" style="fill:#010101;fill-rule:evenodd;opacity:.30000001192092896"/><path d="M167.72 161s-2-6.28 1.47-10a.21.21 0 0 1 .21-.06.22.22 0 0 1 .16.16c.2 1.06.44 4.22-1.84 9.9z" style="fill:#1a4f8c;fill-rule:evenodd"/><path d="M168.82 153.13a5.08 5.08 0 0 0-.29 1.13c-.15.71-.33 1.7-.5 2.77s-.28 2.08-.34 2.8a4.58 4.58 0 0 0 0 1.17 6.42 6.42 0 0 0 .19-1.15c.12-.8.26-1.74.43-2.78s.3-2 .42-2.78a5.62 5.62 0 0 0 .09-1.16z" style="fill:#263339;fill-rule:evenodd"/><path d="M167.72 161s-2-6.28 1.47-10a.21.21 0 0 1 .21-.06.22.22 0 0 1 .16.16c.2 1.06.44 4.22-1.84 9.9z" style="fill:#010101;fill-rule:evenodd;opacity:.30000001192092896"/><path d="M156.65 138.9s-5.4-3.78-4.85-8.85a.21.21 0 0 1 .13-.19.24.24 0 0 1 .23 0c.84.75 2.92 3.14 4.49 9.04z" style="fill:#1a4f8c;fill-rule:evenodd"/><path d="M156.65 138.9s-5.4-3.78-4.85-8.85a.21.21 0 0 1 .13-.19.24.24 0 0 1 .23 0c.84.75 2.92 3.14 4.49 9.04z" style="fill:#010101;fill-rule:evenodd;opacity:.30000001192092896"/><path d="M152.79 131.93a5.13 5.13 0 0 0 .45 1.08c.3.65.75 1.54 1.27 2.51s1 1.83 1.41 2.44a4.9 4.9 0 0 0 .69.95 6.4 6.4 0 0 0-.54-1l-1.35-2.47-1.34-2.47a5.59 5.59 0 0 0-.59-1z" style="fill:#263339;fill-rule:evenodd"/><path d="M165.56 154.79s-6.52-1-8.26-5.81a.22.22 0 0 1 0-.22.23.23 0 0 1 .22-.07c1.04.31 3.98 1.47 8.04 6.1z" style="fill:#1a4f8c;fill-rule:evenodd"/><path d="M165.56 154.79s-6.52-1-8.26-5.81a.22.22 0 0 1 0-.22.23.23 0 0 1 .22-.07c1.04.31 3.98 1.47 8.04 6.1z" style="fill:#010101;fill-rule:evenodd;opacity:.30000001192092896"/><path d="M159 150.25a5.34 5.34 0 0 0 .88.77c.56.45 1.36 1 2.25 1.7s1.73 1.19 2.35 1.56a4.64 4.64 0 0 0 1 .55 5.83 5.83 0 0 0-.94-.69l-2.29-1.62-2.25-1.64a6.38 6.38 0 0 0-1-.63z" style="fill:#263339;fill-rule:evenodd"/><path style="fill:#465b65;fill-rule:evenodd" d="m173.25 166.78-1.87 12.25-7.46-.01-2.51-12.24h11.84z"/><path d="M166.44 170.71a2.07 2.07 0 0 0 .34-1 1.11 1.11 0 0 0-.5-1.05 1.2 1.2 0 0 0-1.25.11 1.84 1.84 0 0 0-.72 1.12 5 5 0 0 0-.09 1.39 4.56 4.56 0 0 0 .3 1.41 3.17 3.17 0 0 0 .85 1.23 2.33 2.33 0 0 0 1.44.6 2.61 2.61 0 0 0 1.49-.42 4.49 4.49 0 0 0 1.12-1 2.54 2.54 0 0 0 .56-1.34 1.58 1.58 0 0 0-.53-1.31 1.24 1.24 0 0 0-1.32-.08 1.45 1.45 0 0 0-.77 1 1.91 1.91 0 0 0 .95 1.94 2.62 2.62 0 0 0 1.8.26 3.87 3.87 0 0 0 1.27-.5q.38-.22.72-.48a1.5 1.5 0 0 0 .23-.2l-.25.16-.74.45a4 4 0 0 1-1.27.46 2.54 2.54 0 0 1-1.69-.27 1.76 1.76 0 0 1-.85-1.78 1.29 1.29 0 0 1 .68-.88 1 1 0 0 1 1.12.07 1.37 1.37 0 0 1 .45 1.14 2.2 2.2 0 0 1-.53 1.24 4.24 4.24 0 0 1-1.06 1 2.52 2.52 0 0 1-1.37.4 2.29 2.29 0 0 1-1.32-.55 3 3 0 0 1-.81-1.16 4.18 4.18 0 0 1-.29-1.35 4.58 4.58 0 0 1 .08-1.33 1.65 1.65 0 0 1 .63-1 1 1 0 0 1 1.07-.1 1 1 0 0 1 .42.9 1.88 1.88 0 0 1-.31.95 2.77 2.77 0 0 1-1.39 1 3.12 3.12 0 0 1-1.32.16 3.56 3.56 0 0 1-1.11-.33l.06.05.2.11a2.86 2.86 0 0 0 .85.25 3 3 0 0 0 1.37-.13 2.85 2.85 0 0 0 1.48-1.07" style="fill:#263339;fill-rule:evenodd"/></svg>