<svg xmlns="http://www.w3.org/2000/svg" viewBox="0 0 284 171"><path d="m18.62 125.2-1.7-6.72a87.42 87.42 0 0 0-9.27-3.32l-.21 3.12-.88-3.44c-3.9-1.11-6.56-1.61-6.56-1.61s3.59 13.65 11.12 24.07l8.77 1.54-6.82 1a37.1 37.1 0 0 0 3.05 3.22c11 10.16 23.15 14.82 27.24 10.41S41.9 137.24 31 127.09a46.63 46.63 0 0 0-12-7.67z" style="fill:#e7e6e6"/><path d="m34.84 117.9 2-6.63a89.24 89.24 0 0 0-6.21-7.64l-1.8 2.57 1-3.4c-2.77-3-4.79-4.77-4.79-4.77s-4 13.54-2.93 26.35l6.71 5.85-6.34-2.68a35.68 35.68 0 0 0 .94 4.34c4.12 14.35 12.15 24.64 17.94 23s7.13-14.64 3-29a46.71 46.71 0 0 0-6.24-12.72z" style="fill:#e7e6e6"/><path style="fill:#403e56" d="M.03 155.87H284v.72H.03z"/><path d="M44.89 81.71s-2.21 26.57-2.68 32.29a40.68 40.68 0 0 1-2.38 10.44 9.83 9.83 0 0 0-.95 3.8v24.2a1.41 1.41 0 0 0-1.42 1.9c.47 1.9.95 5.22.95 5.22h7.12a1.47 1.47 0 0 1 .95-1.9c1.42-.47 0-4.27 0-4.27l7.6-28.48 11.39-23.73s6.65 21.36 8.07 23.73c0 0 5.23 26.58 6.18 29s1.42 2.38 1 3.33a2.09 2.09 0 0 0 0 2.37c.47.47 9.49 0 9.49 0l-2.37-33.7-4.33-40.41-21.84-6.64z" style="fill:#302f42"/><path d="M43.63 155.74s-2.37-8.54-6.17-1.9-3.8 9-3.8 9-6.17 9 2.37 8.07 6.65-5.22 6.65-5.22 3.32-1.9 3.32-3.32-2.37-6.63-2.37-6.63zM82.09 154.79s2.37-8.54 6.17-1.89 3.8 9 3.8 9 6.17 9-2.37 8.07-6.69-5.21-6.69-5.21-3.32-1.9-3.32-3.32 2.41-6.65 2.41-6.65z" style="fill:#302f42"/><path d="M59.77 17.63s.95 6.17-1.9 7.6 6.18 6.64 8.55 6.64 6.65-4.74 6.65-4.74-2.38-7.12-1.9-8.55z" style="fill:#a1626a"/><path d="M65 22.38a10 10 0 1 0-10-10 10 10 0 0 0 10 10z" style="fill:#a1626a"/><path d="m84.46 32.82-11.87-7.19s-6.75 7.67-14.06-.88L46 28.08l1.9 32.27S45.05 73.16 46 75.54s-2.37 3.32-1.42 3.79 0 3.8 0 3.8 18.52 9.49 38.93 2.37l-1.9-6.17a5 5 0 0 0 .15-2.49 5.09 5.09 0 0 0-1.09-2.25 4.21 4.21 0 0 0-.48-5.22s1-4.28-1.42-6.17l-.48-6.65 1.43-3.32z" style="fill:#cfcce0"/><path d="M59.89 7.79s-1.19 2.57 3.57 1.54c0 0 1.78 1 1.78-.51 0 0 2.38 2.57 3 1s1.79.52 1.79.52l1.19-2.57 1.19 1.54h4.16S77.72-1 63.46.07 56.21 17.4 56.21 17.4s.12-2.93 1.31-1.38 2.37-8.23 2.37-8.23z" style="fill:#302f42"/><path d="m88.74 51.81.47 10s1.9 18.51-1.9 26.58v4.27s-1 10.92-5.69 10.44S83 87.4 83 87.4l-1-20.88-1-11.87z" style="fill:#a1626a"/><path d="m79.24 33.3 4.76-.77a23.15 23.15 0 0 1 6.66 12.16c1.42 7.59 1.9 9 1.9 9l-11.4 2.85L75 44.69z" style="fill:#cfcce0"/><path style="fill:#fff" d="M58.85 27.88h74.93v37.2H58.85z"/><path d="M67 30.12a8.74 8.74 0 0 0-5.13-1 8.77 8.77 0 0 0 3.27 4.07 8.74 8.74 0 0 0 5.13 1A8.83 8.83 0 0 0 67 30.12zM76.07 53.08H64a2.82 2.82 0 0 0-1 .2 2.74 2.74 0 0 0-1.47 1.47 2.66 2.66 0 0 0 0 2.07A2.74 2.74 0 0 0 63 58.29a2.82 2.82 0 0 0 1 .2h12a2.83 2.83 0 0 0 1-.2 2.74 2.74 0 0 0 1.47-1.47 2.78 2.78 0 0 0 0-2.07A2.74 2.74 0 0 0 77 53.28a2.83 2.83 0 0 0-.93-.2z" style="fill:#1a4f8c"/><path d="M130.82 58.49a3.62 3.62 0 0 1-3.61 3.61h-9a3.62 3.62 0 0 1-3.61-3.61v-5.41a3.62 3.62 0 0 1 3.61-3.61h9a3.59 3.59 0 0 1 2.55 1.06 3.64 3.64 0 0 1 1.06 2.55zm-54.75.6H64a3.31 3.31 0 1 1 0-6.61h12a3.31 3.31 0 0 1 2.34 1 3.3 3.3 0 0 1 0 4.67 3.31 3.31 0 0 1-2.27.94zm-14.64-30.5a9.5 9.5 0 0 1 5.91 1A9.48 9.48 0 0 1 71 34.35l.11.32-.34.06a8.09 8.09 0 0 1-1.47.11 8.73 8.73 0 0 1-4.44-1.12A9.37 9.37 0 0 1 61.2 29l-.11-.33zm69.13-4.07H63.1a6 6 0 0 0-2.29.45 6 6 0 0 0-3.68 5.52v32.85a6 6 0 0 0 6 6h67.46a6 6 0 0 0 6-6V30.49a6 6 0 0 0-.45-2.29 6.08 6.08 0 0 0-3.29-3.2 6 6 0 0 0-2.29-.48z" style="fill:#1a4f8c"/><path d="M121 58.94h-3.91a.47.47 0 0 1-.17 0l-.15-.1a.56.56 0 0 1-.1-.15.5.5 0 0 1 0-.34.56.56 0 0 1 .1-.15l.15-.1a.47.47 0 0 1 .17 0H121a.46.46 0 0 1 .32.13.46.46 0 0 1 0 .64.46.46 0 0 1-.32.07zm0-1.5h-3.91a1 1 0 0 0-.74.31 1 1 0 0 0 0 1.48 1 1 0 0 0 .74.31H121a1.05 1.05 0 1 0 0-2.1zM128.26 58.94h-3.91a.47.47 0 0 1-.17 0 .46.46 0 0 1-.25-.25.5.5 0 0 1 0-.34.46.46 0 0 1 .25-.25.47.47 0 0 1 .17 0h3.91a.46.46 0 0 1 .32.13.46.46 0 0 1 0 .64.46.46 0 0 1-.32.07zm0-1.5h-3.91a1.05 1.05 0 0 0 0 2.1h3.91a1.05 1.05 0 1 0 0-2.1zM121 56.24h-3.91a.53.53 0 0 1-.17 0 .44.44 0 0 1-.15-.1.42.42 0 0 1-.09-.14.39.39 0 0 1 0-.18.38.38 0 0 1 0-.17.42.42 0 0 1 .09-.14.44.44 0 0 1 .15-.1.53.53 0 0 1 .17 0H121a.58.58 0 0 1 .18 0 .33.33 0 0 1 .14.1.45.45 0 0 1 .1.14.55.55 0 0 1 0 .17.57.57 0 0 1 0 .18.45.45 0 0 1-.1.14.33.33 0 0 1-.14.1.58.58 0 0 1-.18 0zm0-1.51h-3.91a1 1 0 0 0-.74.31 1.05 1.05 0 0 0 0 1.49 1 1 0 0 0 .74.31H121a1.06 1.06 0 0 0 .75-.31 1.05 1.05 0 0 0 0-1.49 1.06 1.06 0 0 0-.75-.31zM128.26 56.24h-3.91a.47.47 0 0 1-.17 0 .31.31 0 0 1-.15-.1.71.71 0 0 1-.1-.14.57.57 0 0 1 0-.18.55.55 0 0 1 0-.17.71.71 0 0 1 .1-.14.31.31 0 0 1 .15-.1.47.47 0 0 1 .17 0h3.91a.47.47 0 0 1 .17 0 .31.31 0 0 1 .15.1.45.45 0 0 1 .1.14.55.55 0 0 1 0 .17.57.57 0 0 1 0 .18.45.45 0 0 1-.1.14.31.31 0 0 1-.15.1.47.47 0 0 1-.17 0zm0-1.51h-3.91a1 1 0 0 0-.74.31 1.05 1.05 0 0 0 0 1.49 1 1 0 0 0 .74.31h3.91a1.06 1.06 0 0 0 .75-.31A1.08 1.08 0 0 0 129 55a1.06 1.06 0 0 0-.74-.27zM121 53.53h-3.91a.47.47 0 0 1-.17 0l-.15-.1a.56.56 0 0 1-.1-.15.5.5 0 0 1 0-.34.56.56 0 0 1 .1-.15.49.49 0 0 1 .15-.1.47.47 0 0 1 .17 0H121a.46.46 0 0 1 .32.13.42.42 0 0 1 .13.32.44.44 0 0 1-.13.32.46.46 0 0 1-.32.07zm0-1.5h-3.91a1 1 0 0 0-1 1 1 1 0 0 0 .31.74 1 1 0 0 0 .74.31H121a1.06 1.06 0 0 0 1.06-1.05A1 1 0 0 0 121 52zM128.26 53.53h-3.91a.47.47 0 0 1-.17 0 .46.46 0 0 1-.25-.25.5.5 0 0 1 0-.34.56.56 0 0 1 .1-.15.4.4 0 0 1 .15-.1.47.47 0 0 1 .17 0h3.91a.44.44 0 0 1 .45.45.48.48 0 0 1-.13.32.46.46 0 0 1-.32.07zm0-1.5h-3.91a1 1 0 0 0-1 1 1.06 1.06 0 0 0 1 1.05h3.91a1 1 0 0 0 1.05-1.05 1 1 0 0 0-1.05-1z" style="fill:#1a4f8c"/><path d="M38.88 46.11s-4.27 18 .95 18S57.4 43.74 57.4 43.74s12.82-6.65 7.6-9-11.87 3.8-11.87 3.8l-7.67 10.62-.41-5.42z" style="fill:#a1626a"/><path d="M48.85 30.92 46 28.08s-5.69 3.32-6.17 6.64S37 48.48 37 48.48l8.79.72 2.85-4.28z" style="fill:#cfcce0"/><path d="M183.81 24.17c-.36-1.05-4.84-4.64-2.09-5.25l2.25 3 10.36-10.36 1 1zM183.81 59.4c-.36-1.06-4.84-4.65-2.09-5.25l2.25 3 10.36-10.36 1 1.05zM183.81 95.12c-.36-1.05-4.84-4.64-2.09-5.25l2.25 3 10.36-10.36 1 1z" style="fill:#1a4f8c"/><path d="M215.2 23.09a3.2 3.2 0 1 0-3.2-3.2 3.2 3.2 0 0 0 3.2 3.2zM227.19 19.57h51.49v.64h-51.49zM215.2 58.31a3.2 3.2 0 1 0-3.2-3.2 3.2 3.2 0 0 0 3.2 3.2zM227.19 54.79h51.49v.64h-51.49zM215.2 94a3.2 3.2 0 1 0-3.2-3.19 3.19 3.19 0 0 0 3.2 3.19zM227.19 90.52h51.49v.64h-51.49zM191.89 99.88H175.9v-16.3h10.87v.64h-10.23v15.03h14.71v-7.36h.64v7.99zM191.89 64.08H175.9v-16.3h10.87v.64h-10.23v15.03h14.71v-7.36h.64v7.99zM191.89 27.64H175.9v-16.3h10.87v.64h-10.23V27h14.71v-7.35h.64v7.99z" style="fill:#403e56"/></svg>