<svg id="Layer_1" data-name="Layer 1" xmlns="http://www.w3.org/2000/svg" viewBox="0 0 189.6 166.98"><defs><style>.cls-1{fill:#ebebeb;}.cls-1,.cls-10,.cls-11,.cls-13,.cls-14,.cls-15,.cls-2,.cls-3,.cls-5,.cls-6,.cls-8,.cls-9{fill-rule:evenodd;}.cls-2,.cls-7{fill:#e0e0e0;}.cls-3{fill:#263238;}.cls-11,.cls-4{fill:#f5f5f5;}.cls-6{fill:#1a4f8b;}.cls-8,.cls-9{fill:#fff;}.cls-9{opacity:0.5;}.cls-10{fill:#ffbe9d;}.cls-12,.cls-14{fill:#455a64;}.cls-13{opacity:0.3;}.cls-15{fill:#eb996e;}</style></defs><path class="cls-1" d="M49,43.24c6.05-6,6.08-15.13,4.45-23.08-.28-1.33-.37-2.76-1.21-3.82a2.78,2.78,0,0,0-3.55-.85c-.91.64-1.15,1.87-1.54,2.92a7.89,7.89,0,0,1-2.62,3.52,3,3,0,0,1-2.7.72c-1.27-.42-1.67-2-1.89-3.34l-1.22-7.43A12.54,12.54,0,0,0,37.65,8a4.16,4.16,0,0,0-3.06-2.34,2.54,2.54,0,0,0-2.81,2.2A13,13,0,0,0,32,9.52a1.43,1.43,0,0,1-.6,1.46,1.65,1.65,0,0,1-1.56-.36,18.3,18.3,0,0,1-4-4.24,24.55,24.55,0,0,0-3.81-4.44A7.22,7.22,0,0,0,16.73.05a4.33,4.33,0,0,0-3.9,3.68c-.16,1.95,1.27,3.67,2.7,5a29.78,29.78,0,0,0,7.19,4.82,2.47,2.47,0,0,1,1.22.94,1.87,1.87,0,0,1-1.07,2.3,15.42,15.42,0,0,1-3,.88,3,3,0,0,0-2.28,2c-.32,1.45,1.06,2.68,2.34,3.42a25.72,25.72,0,0,0,8.26,3.05,8.86,8.86,0,0,1,3,.88,2.51,2.51,0,0,1,1.27,2.69,2.55,2.55,0,0,1-2.54,1.51,19.34,19.34,0,0,1-3.1-.62c-1.95-.38-4.28.15-5.19,1.93a4.25,4.25,0,0,0,.2,3.79,9.5,9.5,0,0,0,2.56,2.94A25.9,25.9,0,0,0,36.58,45c4.48.75,8.48.47,12.42-1.79" transform="translate(-0.2 -0.01)"/><path class="cls-2" d="M14.45,1.57a.58.58,0,0,0,.15.11l.45.28c.4.25,1,.62,1.74,1.11a48.85,48.85,0,0,1,6,4.61C24,8.74,25.26,10,26.62,11.29s2.74,2.77,4.18,4.33A62.91,62.91,0,0,1,35,20.74c.68.93,1.32,1.91,2,2.92l2,3.05a123.08,123.08,0,0,1,6.91,12A59.92,59.92,0,0,1,50,49.23a43.09,43.09,0,0,1,1.41,7.48c.08.89.13,1.59.15,2.07,0,.22,0,.4,0,.53a.61.61,0,0,0,0,.19.61.61,0,0,0,0-.19v-.54c0-.47,0-1.17-.1-2.07a42.64,42.64,0,0,0-1.34-7.52,58.48,58.48,0,0,0-4-10.57,119,119,0,0,0-6.91-12l-2-3.05c-.65-1-1.29-2-2-2.93a56.38,56.38,0,0,0-4.25-5.15c-1.44-1.57-2.86-3-4.2-4.32s-2.62-2.55-3.82-3.6A46.58,46.58,0,0,0,16.84,3c-.75-.48-1.35-.85-1.76-1.07l-.47-.26Z" transform="translate(-0.2 -0.01)"/><path class="cls-2" d="M35.15,20.6a2.92,2.92,0,0,0,0-.59v-1.6c0-1.36-.15-3.23-.29-5.29s-.23-3.92-.25-5.28V6.25a2.32,2.32,0,0,0,0-.59,2.25,2.25,0,0,0-.07.58c0,.38-.06.93-.07,1.6,0,1.36,0,3.24.17,5.3s.27,3.87.36,5.27c.05.64.07,1.17.1,1.6a2.31,2.31,0,0,0,0,.59Z" transform="translate(-0.2 -0.01)"/><path class="cls-2" d="M17.52,20.33a3.25,3.25,0,0,0,.7,0c.42,0,1.09-.09,1.88-.13,1.6-.1,3.82-.16,6.24-.12s4.64.18,6.23.33c.79.06,1.44.13,1.88.18a4.12,4.12,0,0,0,.7.05,3.93,3.93,0,0,0-.68-.15c-.43-.07-1.09-.17-1.88-.26-1.6-.19-3.82-.36-6.25-.4a62.13,62.13,0,0,0-6.25.19c-.79.07-1.44.15-1.88.22a3.35,3.35,0,0,0-.69.13Z" transform="translate(-0.2 -0.01)"/><path class="cls-2" d="M45.83,38.3a1,1,0,0,0,.08-.22c.05-.18.11-.4.19-.67.16-.58.36-1.43.61-2.48.49-2.1,1.07-5,1.69-8.24s1.16-6.15,1.61-8.25L50.54,16c.06-.27.11-.5.14-.69a.45.45,0,0,0,0-.23,1.55,1.55,0,0,0-.08.23q-.08.26-.18.66c-.16.58-.37,1.43-.61,2.48-.5,2.09-1.08,5-1.7,8.24s-1.16,6.13-1.6,8.25c-.22,1-.4,1.87-.54,2.49l-.14.68a1,1,0,0,0,0,.24Z" transform="translate(-0.2 -0.01)"/><path class="cls-2" d="M21.89,34.89a.84.84,0,0,0,.24.06l.69.1,2.55.38c2.16.31,5.15.78,8.45,1.3s6.29,1,8.48,1.24l2.57.29.7,0a.49.49,0,0,0,.24,0l-.24-.05-.7-.11-2.54-.37c-2.17-.31-5.15-.79-8.45-1.31s-6.29-1-8.48-1.23c-1.09-.14-2-.24-2.58-.3l-.69,0Z" transform="translate(-0.2 -0.01)"/><path class="cls-2" d="M182.48,20.64s-4.33-2.12-8,8.06a124.11,124.11,0,0,0-4.8,15.91s-1,2.16-2.58,1S163.23,41,161,42s-2.79,3.82-1.82,7.72,2.76,12.57,2.93,13.36-.15,2-1.32,1.36-8.26-6.73-11-3.19,1.77,14,2.24,15.15.3,1.69-.23,2.06-2.71-1.92-4.8-3.58-4.8-3.21-6.19-1-.88,10.38,8.56,22.63l4.72,5.37,7.09-1.3c15-3.72,20.52-9.83,20.78-12.39s-2.83-3-5.49-3-5.8.42-6-.2,0-1.14,1.1-1.75,11.11-6,11.2-10.46-9.28-4.07-10.57-4.33-.78-1.38-.18-1.88,7.41-6.17,10.6-8.63,4.58-4.94,3.39-7.17-5.16-.91-7.07-1-1.37-2.41-1.37-2.41a123.57,123.57,0,0,0,6.14-15.44c3.47-10.24-1.37-11.26-1.37-11.26" transform="translate(-0.2 -0.01)"/><path class="cls-1" d="M179.19,29.74a.63.63,0,0,1-.06.22,6.5,6.5,0,0,0-.21.63c-.18.56-.45,1.38-.8,2.43-.69,2.12-1.73,5.14-3,8.9-2.58,7.51-6.23,17.84-10.29,29.26s-7.73,21.71-10.35,29.2l-3.09,8.88-.85,2.41c-.09.27-.17.47-.22.62l-.08.21a.61.61,0,0,1,.06-.21c.06-.14.12-.37.2-.64.19-.56.46-1.38.8-2.42.7-2.12,1.73-5.15,3-8.91,2.57-7.5,6.22-17.84,10.29-29.25S172.33,49.34,175,41.84c1.3-3.73,2.35-6.78,3.09-8.87.36-1,.64-1.85.84-2.41.1-.27.18-.48.23-.63A1.22,1.22,0,0,1,179.19,29.74Z" transform="translate(-0.2 -0.01)"/><path class="cls-1" d="M164.07,47a2.05,2.05,0,0,1,.25.46c.14.3.33.75.57,1.27.46,1.1,1.07,2.63,1.69,4.34l1.62,4.36.5,1.32a2.84,2.84,0,0,1,.17.49,2,2,0,0,1-.25-.45c-.14-.31-.34-.75-.56-1.3-.46-1.1-1.05-2.64-1.7-4.35s-1.21-3.19-1.65-4.35l-.5-1.32A2.54,2.54,0,0,1,164.07,47Z" transform="translate(-0.2 -0.01)"/><path class="cls-1" d="M169.55,59.27c0-.06,3.08-1.45,6.93-3.11s7-3,7-2.89-3.08,1.44-6.94,3.1S169.58,59.33,169.55,59.27Z" transform="translate(-0.2 -0.01)"/><path class="cls-1" d="M162.52,76.5a2.27,2.27,0,0,1,.52-.09l1.43-.18c1.21-.15,2.87-.36,4.7-.67s3.48-.63,4.66-.88l1.42-.29a3,3,0,0,1,.52-.08,3,3,0,0,1-.5.17c-.33.09-.81.22-1.4.36-1.18.28-2.83.64-4.67.94s-3.5.5-4.72.61c-.61,0-1.1.09-1.44.1A1.81,1.81,0,0,1,162.52,76.5Z" transform="translate(-0.2 -0.01)"/><path class="cls-1" d="M155.11,66.46a2.31,2.31,0,0,1,.34.36l.84,1c.7.89,1.37,2.47,2.68,3.48,1,1.37,2,2.62,2.63,3.53l.77,1.08a1.7,1.7,0,0,1,.26.43,2.24,2.24,0,0,1-.32-.37l-.85-1c-.7-.88-1.64-2.12-2.68-3.48L156.15,68l-.77-1.1A2.42,2.42,0,0,1,155.11,66.46Z" transform="translate(-0.2 -0.01)"/><path class="cls-1" d="M147,80.88a4.69,4.69,0,0,1,.43.47l1.07,1.33c.9,1.13,2.12,2.7,3.47,4.44s2.54,3.32,3.41,4.47l1,1.38a3.15,3.15,0,0,1,.35.52,3.2,3.2,0,0,1-.43-.47l-1.07-1.31c-.9-1.13-2.12-2.7-3.47-4.44s-2.54-3.32-3.41-4.48l-1-1.39a2.68,2.68,0,0,1-.36-.52Z" transform="translate(-0.2 -0.01)"/><path class="cls-1" d="M156.56,93.12a5.13,5.13,0,0,1,.66-.13l1.8-.29c1.53-.25,3.63-.59,5.94-1s4.39-.91,5.9-1.25l1.78-.4a3.85,3.85,0,0,1,.66-.13,3.69,3.69,0,0,1-.64.21c-.42.12-1,.29-1.76.47-1.5.38-3.58.87-5.9,1.32s-4.42.77-5.93,1l-1.82.22A4,4,0,0,1,156.56,93.12Z" transform="translate(-0.2 -0.01)"/><path class="cls-3" d="M184.52,166.43c0,.13-41.26.22-92.16.22S.2,166.56.2,166.43s41.26-.21,92.17-.21S184.52,166.33,184.52,166.43Z" transform="translate(-0.2 -0.01)"/><rect class="cls-4" x="48.74" y="2.03" width="108.03" height="135.53"/><path class="cls-3" d="M49,2,157,2h.09V137.67H48.84v-.09c.06-80.54.1-134.66.1-135.53,0,.85,0,55,.1,135.53l-.1-.1H157l-.11.11V2.08l.09.09Z" transform="translate(-0.2 -0.01)"/><polygon class="cls-5" points="90.36 12.77 91.45 12.77 91.45 17.7 94.5 17.7 94.5 18.61 90.36 18.61 90.36 12.77"/><path class="cls-5" d="M98.74,16.4a1.32,1.32,0,1,0-1.32,1.39,1.29,1.29,0,0,0,1.32-1.39Zm-3.69,0a2.37,2.37,0,1,1,2.37,2.28,2.23,2.23,0,0,1-2.37-2.28Z" transform="translate(-0.2 -0.01)"/><path class="cls-5" d="M104.19,16.26a1.36,1.36,0,1,0-1.35,1.28,1.25,1.25,0,0,0,1-.35,1.28,1.28,0,0,0,.4-.93Zm1-2.09v3.76a2.09,2.09,0,0,1-2.4,2.35,3.58,3.58,0,0,1-2.17-.63l.47-.79a2.64,2.64,0,0,0,1.65.54c1,0,1.41-.45,1.41-1.35v-.24a2,2,0,0,1-1.49.6,2.16,2.16,0,1,1,0-4.31,1.93,1.93,0,0,1,1.54.65v-.6Z" transform="translate(-0.2 -0.01)"/><path class="cls-5" d="M106.58,14.17h1v4.45h-1Zm-.14-1.36a.63.63,0,0,1,.67-.62.61.61,0,0,1,.46.15.61.61,0,0,1-.45,1.07A.66.66,0,0,1,106.44,12.81Z" transform="translate(-0.2 -0.01)"/><path class="cls-5" d="M113.38,16.07v2.54h-1V16.2c0-.8-.39-1.18-1-1.18A1.19,1.19,0,0,0,110,16.36v2.25h-1V14.17h1v.58a1.88,1.88,0,0,1,1.54-.63A1.74,1.74,0,0,1,113.38,16.07Z" transform="translate(-0.2 -0.01)"/><path class="cls-6" d="M120.94,9.78a2.17,2.17,0,0,1,.16,1.69,3.68,3.68,0,0,1-.91,1.5,6.71,6.71,0,0,1-3,1.7,4.54,4.54,0,0,1,.78-3.16c.61-1,2.32-2.45,3-1.73" transform="translate(-0.2 -0.01)"/><path class="cls-6" d="M116.94,16.82a1.87,1.87,0,0,1,1.55-1.07,2.48,2.48,0,0,1,1.81.62,1.06,1.06,0,0,1,.43.76.82.82,0,0,1-.47.66,1.65,1.65,0,0,1-.85.12,3.2,3.2,0,0,1-2.48-1.09" transform="translate(-0.2 -0.01)"/><path class="cls-3" d="M114.5,18.27a3.79,3.79,0,0,1,.53-.53,3.52,3.52,0,0,1,.69-.44,6.29,6.29,0,0,1,.91-.43,3.67,3.67,0,0,1,1.8-.21,3.18,3.18,0,0,1,.53.14.69.69,0,0,1,.19.1,3.55,3.55,0,0,0-.73-.15,4,4,0,0,0-1.75.24,9.1,9.1,0,0,0-.9.4,3.66,3.66,0,0,0-.68.42,6.26,6.26,0,0,1-.59.46Z" transform="translate(-0.2 -0.01)"/><path class="cls-3" d="M119.74,11a3.72,3.72,0,0,1-.19.34c-.14.2-.33.5-.57.84-.48.73-1.16,1.72-1.94,2.8s-1.51,2-2.06,2.72c-.27.35-.49.62-.65.81a3.33,3.33,0,0,1-.25.28,1.41,1.41,0,0,1,.21-.31l.62-.85c.53-.7,1.25-1.66,2-2.74l2-2.74.6-.85A2.86,2.86,0,0,1,119.74,11Z" transform="translate(-0.2 -0.01)"/><path class="cls-6" d="M115.53,16.33a4.36,4.36,0,0,0-.59-3.94c-.21-.29-.52-.57-.85-.49s-.49.49-.53.85a3.72,3.72,0,0,0,1.92,3.66" transform="translate(-0.2 -0.01)"/><path class="cls-3" d="M114.68,13.38l.11.16a4.59,4.59,0,0,1,.26.48,5.19,5.19,0,0,1,.48,1.73,3,3,0,0,1-.1,1,2.76,2.76,0,0,1-.33.77,2.59,2.59,0,0,1-.32.42l-.14.14s.17-.23.39-.63a3.06,3.06,0,0,0,.28-.73,3.36,3.36,0,0,0,.08-1,5.55,5.55,0,0,0-.45-1.7,5.6,5.6,0,0,1-.26-.68Z" transform="translate(-0.2 -0.01)"/><polygon class="cls-3" points="59.89 32.34 59.89 32.65 57.48 32.65 57.48 29.23 59.82 29.23 59.82 29.55 57.84 29.55 57.84 30.76 59.61 30.76 59.61 31.06 57.84 31.06 57.84 32.34 59.89 32.34"/><path class="cls-3" d="M65.1,31.16v1.49h-.34V31.19c0-.53-.28-.81-.74-.81a.8.8,0,0,0-.63.27.88.88,0,0,0-.22.65v1.35h-.34V31.19c0-.53-.28-.81-.74-.81a.84.84,0,0,0-.85.92v1.35h-.35V30.08h.33v.47a1,1,0,0,1,1-.48.92.92,0,0,1,.91.53,1.11,1.11,0,0,1,1-.53.91.91,0,0,1,.76.31A.93.93,0,0,1,65.1,31.16Z" transform="translate(-0.2 -0.01)"/><path class="cls-3" d="M67.61,31.88v-.42h-.8c-.5,0-.66.19-.66.45s.24.49.65.49a.82.82,0,0,0,.81-.52Zm.37-.8v1.59h-.34v-.4a1,1,0,0,1-.88.42c-.58,0-.94-.3-.94-.75s.26-.72,1-.72h.79v-.16a.64.64,0,0,0-.73-.68,1.32,1.32,0,0,0-.84.31l-.16-.26a1.72,1.72,0,0,1,1-.35.93.93,0,0,1,.78.24A.92.92,0,0,1,68,31.08Z" transform="translate(-0.2 -0.01)"/><path class="cls-3" d="M68.92,30.08h.42v2.57h-.42Zm-.08-.81a.23.23,0,0,1,.08-.17.22.22,0,0,1,.17-.07.24.24,0,0,1,.18.07.21.21,0,0,1,.07.17.21.21,0,0,1-.07.18.23.23,0,0,1-.18.07.26.26,0,0,1-.18-.07A.29.29,0,0,1,68.84,29.27Z" transform="translate(-0.2 -0.01)"/><polygon class="cls-3" points="70.03 29.02 70.46 29.02 70.46 32.64 70.04 32.64 70.03 29.02"/><path class="cls-3" d="M74.4,31.88v-.42h-.81c-.49,0-.65.19-.65.45s.23.49.64.49a.83.83,0,0,0,.82-.52Zm.35-.8v1.59h-.33v-.4a1,1,0,0,1-.88.42c-.58,0-.94-.3-.94-.75s.25-.72,1-.72h.81v-.16a.64.64,0,0,0-.73-.68,1.33,1.33,0,0,0-.85.31l-.15-.26a1.63,1.63,0,0,1,1-.35,1,1,0,0,1,.77.24.94.94,0,0,1,.27.76Z" transform="translate(-0.2 -0.01)"/><path class="cls-3" d="M77.71,31.37a.94.94,0,1,0-.26.71A1,1,0,0,0,77.71,31.37ZM78,29v3.62h-.33v-.51a1.09,1.09,0,0,1-1,.53,1.3,1.3,0,0,1,0-2.6,1.11,1.11,0,0,1,1,.5V29Z" transform="translate(-0.2 -0.01)"/><path class="cls-3" d="M81,31.37a1,1,0,1,0-1,1,.94.94,0,0,0,1-1ZM81.35,29v3.62H81v-.51a1.09,1.09,0,0,1-1,.53,1.3,1.3,0,0,1,0-2.6,1.08,1.08,0,0,1,1,.5V29Z" transform="translate(-0.2 -0.01)"/><path class="cls-3" d="M83.61,30.07v.33h-.08a.85.85,0,0,0-.64.28.86.86,0,0,0-.21.67v1.3h-.35V30.09h.34v.5A.94.94,0,0,1,83.61,30.07Z" transform="translate(-0.2 -0.01)"/><path class="cls-3" d="M84.29,31.22h1.82a.91.91,0,0,0-1.82,0Zm2.15.25H84.29a1,1,0,0,0,1,.9,1,1,0,0,0,.79-.34l.2.22a1.34,1.34,0,0,1-1.46.33A1.35,1.35,0,0,1,84,31.37a1.25,1.25,0,1,1,2.5,0S86.44,31.44,86.44,31.47Z" transform="translate(-0.2 -0.01)"/><path class="cls-3" d="M86.8,32.35l.15-.27a1.51,1.51,0,0,0,.91.28c.49,0,.69-.16.69-.42,0-.67-1.66-.14-1.66-1.16,0-.42.36-.73,1-.73a1.79,1.79,0,0,1,.91.24l-.15.28a1.28,1.28,0,0,0-.76-.22c-.46,0-.66.18-.66.42,0,.7,1.66.17,1.66,1.16,0,.43-.39.73-1.06.73A1.74,1.74,0,0,1,86.8,32.35Z" transform="translate(-0.2 -0.01)"/><path class="cls-3" d="M89.18,32.35l.16-.27a1.47,1.47,0,0,0,.91.28c.48,0,.69-.16.69-.42,0-.67-1.67-.14-1.67-1.16,0-.42.36-.73,1-.73a1.82,1.82,0,0,1,.91.24l-.16.28a1.25,1.25,0,0,0-.75-.22c-.47,0-.67.18-.67.42,0,.7,1.66.17,1.66,1.16,0,.43-.39.73-1,.73a1.75,1.75,0,0,1-1-.31Z" transform="translate(-0.2 -0.01)"/><path class="cls-2" d="M61.88,41.53H63.7a.91.91,0,0,0-1.82,0Zm2.15.26H61.88a1,1,0,0,0,1,.89,1,1,0,0,0,.79-.34l.19.23a1.36,1.36,0,0,1-2.34-.89,1.25,1.25,0,0,1,1.28-1.31,1.26,1.26,0,0,1,.9.38,1.24,1.24,0,0,1,.34.93A.2.2,0,0,0,64,41.79Z" transform="translate(-0.2 -0.01)"/><polygon class="cls-2" points="66.1 42.94 65.3 41.88 64.47 42.94 64.08 42.94 65.09 41.62 64.13 40.35 64.52 40.35 65.29 41.35 66.06 40.39 66.44 40.39 65.47 41.66 66.5 42.98 66.1 42.94"/><path class="cls-2" d="M68.81,42.19v-.43H68c-.49,0-.65.2-.65.47s.23.48.65.48a.82.82,0,0,0,.81-.52Zm.35-.82V43h-.33v-.4a1,1,0,0,1-.89.42c-.58,0-.93-.3-.93-.74s.25-.73,1-.73h.81v-.16c0-.42-.25-.67-.73-.67a1.26,1.26,0,0,0-.84.3l-.16-.26a1.6,1.6,0,0,1,1-.35.92.92,0,0,1,.76.25A.94.94,0,0,1,69.16,41.37Z" transform="translate(-0.2 -0.01)"/><path class="cls-2" d="M74.33,41.47V43H74V41.51c0-.54-.27-.82-.73-.82a.87.87,0,0,0-.63.27.85.85,0,0,0-.22.66V43H72V41.51c0-.54-.27-.82-.74-.82a.87.87,0,0,0-.63.27.89.89,0,0,0-.22.66V43h-.34V40.4h.33v.47a1,1,0,0,1,.94-.49.91.91,0,0,1,.91.54,1.15,1.15,0,0,1,1-.54,1,1,0,0,1,1,1.09Z" transform="translate(-0.2 -0.01)"/><path class="cls-2" d="M77.52,41.68a.94.94,0,1,0-.26.7A.92.92,0,0,0,77.52,41.68Zm.35,0a1.25,1.25,0,0,1-.35.93,1.27,1.27,0,0,1-.92.37,1.14,1.14,0,0,1-1-.51V43.9h-.34V40.4h.33v.51a1.13,1.13,0,0,1,1-.53,1.25,1.25,0,0,1,.91.37A1.28,1.28,0,0,1,77.87,41.68Z" transform="translate(-0.2 -0.01)"/><rect class="cls-7" x="78.38" y="39.33" width="0.42" height="3.6"/><path class="cls-2" d="M80,41.53H81.8a.92.92,0,0,0-1.83,0Zm2.15.26H80a1,1,0,0,0,1,.89,1,1,0,0,0,.78-.34l.2.23a1.36,1.36,0,0,1-2.34-.89,1.25,1.25,0,0,1,1.9-1.14,1.28,1.28,0,0,1,.6,1.14S82.12,41.75,82.12,41.79Z" transform="translate(-0.2 -0.01)"/><path class="cls-2" d="M85.77,41.73a.93.93,0,1,0-.92,1,.9.9,0,0,0,.68-.29.85.85,0,0,0,.24-.7Zm1.37,0c0,.84-.31,1.31-.81,1.31a.5.5,0,0,1-.39-.14.51.51,0,0,1-.16-.39,1.07,1.07,0,0,1-1,.53,1.27,1.27,0,0,1,0-2.51,1.09,1.09,0,0,1,1,.51v-.5h.32v1.85c0,.27.13.37.3.37s.49-.38.49-1a1.85,1.85,0,0,0-.57-1.4,1.87,1.87,0,0,0-1.43-.5,1.94,1.94,0,0,0-1.77.95,2,2,0,0,0,1.77,3,2,2,0,0,0,.94-.22l.08.24a2.38,2.38,0,0,1-1,.23A2.21,2.21,0,0,1,83,42.83a2.21,2.21,0,0,1,1.91-3.31,2.12,2.12,0,0,1,1.61.58A2.16,2.16,0,0,1,87.14,41.68Z" transform="translate(-0.2 -0.01)"/><path class="cls-2" d="M89.91,41.62a1,1,0,0,0-.58-.92A1,1,0,0,0,88,42a1,1,0,0,0,.9.61.94.94,0,0,0,.7-.26.9.9,0,0,0,.28-.69Zm.34-1.22v2.26A1.11,1.11,0,0,1,89,43.93a1.79,1.79,0,0,1-1.2-.39l.17-.27a1.59,1.59,0,0,0,1,.36.82.82,0,0,0,.94-.94v-.32a1.15,1.15,0,0,1-1,.49A1.25,1.25,0,0,1,87.77,41a1.28,1.28,0,0,1,1.14-.6,1.16,1.16,0,0,1,1,.52V40.4Z" transform="translate(-0.2 -0.01)"/><path class="cls-2" d="M95.45,41.47V43H95.1V41.51c0-.54-.27-.82-.74-.82a.89.89,0,0,0-.63.27.84.84,0,0,0-.21.66V43h-.35V41.51c0-.54-.27-.82-.74-.82a.87.87,0,0,0-.63.27.85.85,0,0,0-.22.66V43h-.35V40.4h.33v.47a1,1,0,0,1,.94-.49.94.94,0,0,1,.92.54,1.12,1.12,0,0,1,1-.54,1,1,0,0,1,.77.31,1,1,0,0,1,.25.78Z" transform="translate(-0.2 -0.01)"/><path class="cls-2" d="M98,42.19v-.43h-.81c-.5,0-.66.2-.66.47s.25.48.65.48a.83.83,0,0,0,.82-.52Zm.34-.82V43H98v-.4a1,1,0,0,1-.88.42c-.58,0-.94-.3-.94-.74s.25-.73,1-.73H98v-.16c0-.42-.25-.67-.73-.67a1.27,1.27,0,0,0-.85.3l-.15-.26a1.56,1.56,0,0,1,1-.35.92.92,0,0,1,.76.25A.88.88,0,0,1,98.32,41.37Z" transform="translate(-0.2 -0.01)"/><path class="cls-2" d="M99.27,40.39h.42V43h-.42Zm-.08-.81a.25.25,0,0,1,.25-.24.26.26,0,0,1,.18.07.26.26,0,0,1,.07.17.24.24,0,0,1-.07.18.25.25,0,0,1-.18.08A.26.26,0,0,1,99.19,39.58Z" transform="translate(-0.2 -0.01)"/><rect class="cls-7" x="100.38" y="39.33" width="0.42" height="3.6"/><path class="cls-2" d="M101.66,42.72a.27.27,0,0,1,.08-.19.28.28,0,0,1,.37,0,.27.27,0,0,1,.08.19.27.27,0,0,1-.27.27.27.27,0,0,1-.26-.27Z" transform="translate(-0.2 -0.01)"/><path class="cls-2" d="M102.59,41.68a1.25,1.25,0,0,1,.38-.94,1.27,1.27,0,0,1,.94-.37,1.14,1.14,0,0,1,1,.51l-.26.18a.9.9,0,0,0-.75-.39,1,1,0,0,0-.93,1,1,1,0,0,0,.93,1,.83.83,0,0,0,.75-.37l.26.17a1.14,1.14,0,0,1-1,.51,1.26,1.26,0,0,1-.94-.36A1.28,1.28,0,0,1,102.59,41.68Z" transform="translate(-0.2 -0.01)"/><path class="cls-2" d="M107.55,41.68a1,1,0,0,0-1-.92,1,1,0,0,0,0,1.91.91.91,0,0,0,.69-.29.92.92,0,0,0,.26-.7Zm-2.26,0A1.31,1.31,0,1,1,106.6,43a1.27,1.27,0,0,1-.94-.37A1.31,1.31,0,0,1,105.29,41.68Z" transform="translate(-0.2 -0.01)"/><path class="cls-2" d="M112.84,41.47V43h-.35V41.51c0-.54-.27-.82-.73-.82a.87.87,0,0,0-.63.27.89.89,0,0,0-.22.66V43h-.35V41.51c0-.54-.27-.82-.74-.82a.87.87,0,0,0-.63.27.89.89,0,0,0-.22.66V43h-.35V40.4H109v.47a1.07,1.07,0,0,1,1-.49.93.93,0,0,1,.91.54,1.12,1.12,0,0,1,1-.54,1,1,0,0,1,.77.31,1,1,0,0,1,.25.78Z" transform="translate(-0.2 -0.01)"/><path class="cls-2" d="M148.1,47.35a.77.77,0,0,0,.47-.2c.31-.24.18-.81.2-1.48,0-1.37,0-3.39,0-6v-2.6a2.45,2.45,0,0,0,0-.54.63.63,0,0,0-.35-.38,1.26,1.26,0,0,0-.55-.06H130.2l-72.37,0a.6.6,0,0,0-.48.24.82.82,0,0,0-.12.57v9.77a.57.57,0,0,0,.32.42.59.59,0,0,0,.26.07H85.58l32.53,0,21.94,0,6,0h0l-6,0-21.94,0-32.53,0H57.81a.81.81,0,0,1-.79-.66,5,5,0,0,1,0-.67V37a2,2,0,0,1,0-.35.85.85,0,0,1,.14-.34.82.82,0,0,1,.66-.34l72.37,0h17.62a1.37,1.37,0,0,1,.6.08.73.73,0,0,1,.39.42,2.19,2.19,0,0,1,0,.57v2.6c0,2.58,0,4.59,0,6v.9a.75.75,0,0,1-.22.65A.66.66,0,0,1,148.1,47.35Z" transform="translate(-0.2 -0.01)"/><path class="cls-3" d="M60,56c0-.54-.36-.84-1-.84H58v1.69H59c.68,0,1-.31,1-.85Zm.36,0c0,.73-.52,1.17-1.39,1.17H58v1.08h-.36v-3.4H59C59.83,54.85,60.35,55.29,60.35,56Z" transform="translate(-0.2 -0.01)"/><path class="cls-3" d="M62.62,57.49v-.42h-.8c-.5,0-.66.2-.66.46s.24.48.65.48a.8.8,0,0,0,.81-.52Zm.35-.81v1.59h-.33v-.4a1,1,0,0,1-.89.42c-.58,0-.93-.3-.93-.74s.25-.73,1-.73h.81v-.16c0-.42-.25-.67-.73-.67a1.22,1.22,0,0,0-.84.3L60.89,56a1.58,1.58,0,0,1,1-.35,1,1,0,0,1,.77.24A.94.94,0,0,1,63,56.68Z" transform="translate(-0.2 -0.01)"/><path class="cls-3" d="M63.55,58l.16-.27a1.56,1.56,0,0,0,.91.29c.49,0,.69-.17.69-.43,0-.66-1.66-.14-1.66-1.15,0-.42.36-.73,1-.73a1.64,1.64,0,0,1,.91.24l-.15.27a1.37,1.37,0,0,0-.76-.22c-.46,0-.67.18-.67.43,0,.69,1.67.17,1.67,1.15,0,.43-.39.74-1.06.74A1.72,1.72,0,0,1,63.55,58Z" transform="translate(-0.2 -0.01)"/><path class="cls-3" d="M65.94,58l.15-.27A1.59,1.59,0,0,0,67,58c.49,0,.68-.17.68-.43,0-.66-1.66-.14-1.66-1.15,0-.42.36-.73,1-.73a1.6,1.6,0,0,1,.9.24l-.15.27a1.34,1.34,0,0,0-.75-.22c-.47,0-.67.18-.67.43,0,.69,1.66.17,1.66,1.15,0,.43-.39.74-1.06.74A1.69,1.69,0,0,1,65.94,58Z" transform="translate(-0.2 -0.01)"/><polygon class="cls-3" points="72.2 55.69 71.23 58.23 70.9 58.23 70.09 56.11 69.28 58.23 68.95 58.23 67.99 55.69 68.32 55.69 69.13 57.87 69.95 55.69 70.24 55.69 71.07 57.87 71.88 55.69 72.2 55.69"/><path class="cls-3" d="M74.84,57a1,1,0,1,0-1,1,.93.93,0,0,0,1-1Zm-2.26,0a1.31,1.31,0,1,1,1.31,1.31,1.27,1.27,0,0,1-.94-.37A1.31,1.31,0,0,1,72.58,57Z" transform="translate(-0.2 -0.01)"/><path class="cls-3" d="M77.19,55.67V56h-.08a.81.81,0,0,0-.64.28.85.85,0,0,0-.21.67v1.3h-.35V55.72h.33v.5a1,1,0,0,1,1-.55Z" transform="translate(-0.2 -0.01)"/><path class="cls-3" d="M79.79,57a1,1,0,0,0-1-.91,1,1,0,0,0-.93,1,1,1,0,0,0,1,.93.93.93,0,0,0,1-1Zm.34-2.33v3.62H79.8v-.51a1.11,1.11,0,0,1-1,.53,1.31,1.31,0,0,1,0-2.61,1.14,1.14,0,0,1,1,.51V54.65Z" transform="translate(-0.2 -0.01)"/><polygon class="cls-2" points="64.08 68.58 64.08 68.89 61.67 68.89 61.67 65.47 64.02 65.47 64.02 65.78 62.03 65.78 62.03 67 63.8 67 63.8 67.31 62.03 67.31 62.03 68.58 64.08 68.58"/><path class="cls-2" d="M67.41,67.41V68.9h-.34V67.45a.73.73,0,0,0-.19-.6.7.7,0,0,0-.58-.22.81.81,0,0,0-.66.25.85.85,0,0,0-.24.67V68.9h-.33V66.34h.33v.47a1.1,1.1,0,0,1,1-.5,1,1,0,0,1,.77.31A.93.93,0,0,1,67.41,67.41Z" transform="translate(-0.2 -0.01)"/><path class="cls-2" d="M69.71,68.74a.83.83,0,0,1-.54.19.69.69,0,0,1-.56-.2.66.66,0,0,1-.19-.55V66.63H68v-.29h.46v-.57h.34v.57h.78v.29h-.78v1.53a.44.44,0,0,0,.11.33.42.42,0,0,0,.32.13.53.53,0,0,0,.38-.13Z" transform="translate(-0.2 -0.01)"/><path class="cls-2" d="M70.33,67.47h1.82a.91.91,0,0,0-1.82,0Zm2.15.25H70.33a1,1,0,0,0,.32.66,1,1,0,0,0,.69.24,1,1,0,0,0,.79-.34l.19.23A1.36,1.36,0,0,1,70,67.62a1.26,1.26,0,0,1,.35-.94,1.29,1.29,0,0,1,.93-.37,1.23,1.23,0,0,1,1.24,1.31A.16.16,0,0,0,72.48,67.72Z" transform="translate(-0.2 -0.01)"/><path class="cls-2" d="M74.48,66.31v.34H74.4a.86.86,0,0,0-.64.28.84.84,0,0,0-.21.66V68.9h-.34V66.34h.33v.5a1,1,0,0,1,.94-.53Z" transform="translate(-0.2 -0.01)"/><path class="cls-2" d="M78.68,67.62a1,1,0,1,0-.46.88A1,1,0,0,0,78.68,67.62Zm.34,0a1.25,1.25,0,0,1-.35.93,1.28,1.28,0,0,1-.92.38,1.14,1.14,0,0,1-1-.51v1.43h-.35V66.34h.34v.5a1.13,1.13,0,0,1,1-.53,1.28,1.28,0,0,1,.92.38A1.22,1.22,0,0,1,79,67.62Z" transform="translate(-0.2 -0.01)"/><path class="cls-2" d="M81.3,68.13V67.7h-.8c-.5,0-.66.2-.66.46s.24.49.65.49a.82.82,0,0,0,.81-.52Zm.35-.82V68.9h-.33v-.42a1,1,0,0,1-.88.42c-.59,0-.94-.3-.94-.75s.25-.73,1-.73h.81v-.15a.63.63,0,0,0-.72-.68,1.35,1.35,0,0,0-.85.3l-.16-.25a1.6,1.6,0,0,1,1-.35.93.93,0,0,1,.78.25A.92.92,0,0,1,81.65,67.31Z" transform="translate(-0.2 -0.01)"/><path class="cls-2" d="M82.23,68.61l.16-.28a1.59,1.59,0,0,0,.91.29c.49,0,.69-.16.69-.42,0-.67-1.66-.14-1.66-1.16,0-.42.36-.73,1-.73a1.82,1.82,0,0,1,.91.24l-.16.28a1.25,1.25,0,0,0-.75-.22c-.46,0-.67.18-.67.42,0,.7,1.67.17,1.67,1.16,0,.44-.39.73-1.06.73a1.77,1.77,0,0,1-1-.31Z" transform="translate(-0.2 -0.01)"/><path class="cls-2" d="M84.62,68.61l.15-.28a1.59,1.59,0,0,0,.91.29c.49,0,.69-.16.69-.42,0-.67-1.66-.14-1.66-1.16,0-.42.36-.73,1-.73a1.7,1.7,0,0,1,.91.24l-.15.28a1.28,1.28,0,0,0-.76-.22c-.46,0-.66.18-.66.42,0,.7,1.66.17,1.66,1.16,0,.44-.39.73-1.06.73a1.74,1.74,0,0,1-1-.31Z" transform="translate(-0.2 -0.01)"/><polygon class="cls-2" points="90.88 66.32 89.89 68.89 89.56 68.89 88.75 66.77 87.94 68.89 87.61 68.89 86.65 66.32 86.98 66.32 87.78 68.5 88.61 66.32 88.91 66.32 89.73 68.5 90.54 66.32 90.88 66.32"/><path class="cls-2" d="M93.52,67.62a1,1,0,1,0-1,1,1,1,0,0,0,.7-.3A.91.91,0,0,0,93.52,67.62Zm-2.26,0a1.31,1.31,0,1,1,1.31,1.31,1.24,1.24,0,0,1-.93-.38A1.26,1.26,0,0,1,91.26,67.62Z" transform="translate(-0.2 -0.01)"/><path class="cls-2" d="M95.87,66.31v.34h-.08a.86.86,0,0,0-.64.28.84.84,0,0,0-.21.66V68.9H94.6V66.34h.33v.5A1,1,0,0,1,95.87,66.31Z" transform="translate(-0.2 -0.01)"/><path class="cls-2" d="M98.47,67.62a1,1,0,1,0-.26.7.88.88,0,0,0,.26-.7Zm.34-2.34V68.9h-.33v-.51a1.11,1.11,0,0,1-1,.53,1.31,1.31,0,1,1,0-2.61,1.11,1.11,0,0,1,1,.51V65.28Z" transform="translate(-0.2 -0.01)"/><polygon class="cls-6" points="127.2 65.78 127.2 67.13 128.96 67.13 128.96 67.44 127.2 67.44 127.2 68.89 126.83 68.89 126.83 65.47 129.18 65.47 129.18 65.78 127.2 65.78"/><path class="cls-6" d="M132,67.62a1,1,0,1,0-.26.7A.92.92,0,0,0,132,67.62Zm-2.26,0A1.31,1.31,0,1,1,131,68.93a1.28,1.28,0,0,1-.94-.38A1.24,1.24,0,0,1,129.71,67.62Z" transform="translate(-0.2 -0.01)"/><path class="cls-6" d="M134.32,66.31v.34h-.08a.84.84,0,0,0-.85.94V68.9H133V66.34h.34v.5a1,1,0,0,1,.94-.53Z" transform="translate(-0.2 -0.01)"/><path class="cls-6" d="M137,67.55a1,1,0,0,0-1.65-.74,1,1,0,0,0,.67,1.68.87.87,0,0,0,.7-.26.9.9,0,0,0,.28-.69Zm.33-1.21v2.25A1.11,1.11,0,0,1,136,69.86a1.84,1.84,0,0,1-1.19-.4l.17-.26a1.57,1.57,0,0,0,1,.35c.65,0,1-.3,1-.93v-.33a1.13,1.13,0,0,1-1,.5,1.25,1.25,0,0,1-1.14-1.89,1.26,1.26,0,0,1,1.14-.6,1.19,1.19,0,0,1,1,.51v-.49Z" transform="translate(-0.2 -0.01)"/><path class="cls-6" d="M140.25,67.62a.93.93,0,1,0-.25.71.9.9,0,0,0,.26-.71Zm-2.25,0a1.31,1.31,0,1,1,1.3,1.31,1.28,1.28,0,0,1-1.3-1.31Z" transform="translate(-0.2 -0.01)"/><path class="cls-6" d="M142.66,68.74a.81.81,0,0,1-.54.19.69.69,0,0,1-.75-.75V66.63h-.46v-.29h.48v-.57h.35v.57h.78v.29h-.78v1.53a.41.41,0,0,0,.11.33.4.4,0,0,0,.31.13.53.53,0,0,0,.38-.13Z" transform="translate(-0.2 -0.01)"/><path class="cls-6" d="M143.82,68.67a.21.21,0,0,1,.07-.18.27.27,0,0,1,.36,0,.25.25,0,0,1,.08.18.26.26,0,0,1-.26.26.32.32,0,0,1-.19-.07.27.27,0,0,1-.08-.19Zm1-2.31c0-.35-.29-.6-.79-.6a1.16,1.16,0,0,0-.93.4l-.25-.2a1.46,1.46,0,0,1,1.21-.5c.68,0,1.12.32,1.12.85,0,.84-.89.87-.89,1.56h-.36C143.87,67.07,144.78,67,144.78,66.36Z" transform="translate(-0.2 -0.01)"/><path class="cls-2" d="M148.1,73.29a.77.77,0,0,0,.47-.2c.31-.24.18-.81.2-1.48,0-1.37,0-3.39,0-6V63.05a2.45,2.45,0,0,0,0-.54.71.71,0,0,0-.35-.39,1.28,1.28,0,0,0-.55,0H130.2l-72.37,0a.6.6,0,0,0-.48.24.82.82,0,0,0-.12.57V72.7a.61.61,0,0,0,.32.43.58.58,0,0,0,.26.06h60.3l21.94,0h0l-21.94,0-32.53,0H57.81a.8.8,0,0,1-.79-.65A5,5,0,0,1,57,72v-9a1.93,1.93,0,0,1,0-.34.81.81,0,0,1,.8-.69l72.37,0h17.62a1.37,1.37,0,0,1,.6.08.7.7,0,0,1,.39.45,2.09,2.09,0,0,1,0,.56v2.6c0,2.58,0,4.59,0,6v.9a.74.74,0,0,1-.23.6A.67.67,0,0,1,148.1,73.29Z" transform="translate(-0.2 -0.01)"/><path class="cls-3" d="M93.77,114.18l.14-.28a1.62,1.62,0,0,0,1.13.42c.64,0,.92-.26.92-.6,0-.94-2.12-.36-2.12-1.63,0-.5.39-.93,1.27-.93a2,2,0,0,1,1.06.3l-.12.29a1.75,1.75,0,0,0-.94-.28c-.63,0-.9.28-.9.61,0,.94,2.12.38,2.12,1.62,0,.5-.41.93-1.27.93a1.85,1.85,0,0,1-1.29-.45Z" transform="translate(-0.2 -0.01)"/><path class="cls-3" d="M97,112h.43v2.55H97Zm-.07-.81A.21.21,0,0,1,97,111a.21.21,0,0,1,.18-.07.24.24,0,0,1,.24.25.26.26,0,0,1-.25.24A.24.24,0,0,1,97,111.21Z" transform="translate(-0.2 -0.01)"/><path class="cls-3" d="M100.69,113.1v1.5h-.35v-1.45a.72.72,0,0,0-.77-.82.82.82,0,0,0-.66.26.86.86,0,0,0-.24.67v1.34h-.34v-2.54h.33v.42a1.1,1.1,0,0,1,1-.49,1,1,0,0,1,.8.3,1,1,0,0,1,.26.81Z" transform="translate(-0.2 -0.01)"/><path class="cls-3" d="M103.68,113.24a1,1,0,0,0-.57-.93,1,1,0,0,0-1.08.19,1,1,0,0,0-.23,1.07,1,1,0,0,0,.91.61.88.88,0,0,0,.69-.26A.86.86,0,0,0,103.68,113.24ZM104,112v2.25a1.11,1.11,0,0,1-1.27,1.27,1.76,1.76,0,0,1-1.19-.39l.17-.27a1.56,1.56,0,0,0,1,.36c.65,0,1-.3,1-.93V114a1.18,1.18,0,0,1-1,.5,1.28,1.28,0,0,1-1.14-.6,1.25,1.25,0,0,1,1.14-1.89,1.14,1.14,0,0,1,1,.51V112Z" transform="translate(-0.2 -0.01)"/><path class="cls-3" d="M108.58,112v2.55h-.33v-.48a1.17,1.17,0,0,1-1.73.21,1,1,0,0,1-.28-.81V112h.35v1.45c0,.55.28.83.77.83A.85.85,0,0,0,108,114a.82.82,0,0,0,.22-.67V112Z" transform="translate(-0.2 -0.01)"/><path class="cls-3" d="M111.79,113.3a1,1,0,1,0-1,1,.93.93,0,0,0,1-1Zm.34,0a1.25,1.25,0,0,1-1.27,1.31,1.11,1.11,0,0,1-1-.51v1.43h-.35V112h.33v.51a1.14,1.14,0,0,1,1-.53,1.23,1.23,0,0,1,1.27,1.3Z" transform="translate(-0.2 -0.01)"/><path class="cls-3" d="M148.1,118.79a.77.77,0,0,0,.47-.2c.31-.24.18-.82.2-1.48,0-1.37,0-3.39,0-6v-2.59a2.45,2.45,0,0,0,0-.54.71.71,0,0,0-.35-.39,1.28,1.28,0,0,0-.55-.06H130.2l-72.37,0a.6.6,0,0,0-.48.24.82.82,0,0,0-.12.57v9.79a.62.62,0,0,0,.58.49H85.58l32.53,0,21.94,0h6l-6,0-21.94,0-32.53,0H57.81a1.06,1.06,0,0,1-.36-.09.81.81,0,0,1-.42-.58,4.85,4.85,0,0,1,0-.66v-9.07a1.93,1.93,0,0,1,0-.34.7.7,0,0,1,.14-.36.81.81,0,0,1,.66-.33l72.37,0h17.62a1.39,1.39,0,0,1,.6.08.74.74,0,0,1,.39.44,2.19,2.19,0,0,1,0,.57v2.6c0,2.58,0,4.59,0,6v.9a.74.74,0,0,1-.23.6.64.64,0,0,1-.5.21Z" transform="translate(-0.2 -0.01)"/><path class="cls-6" d="M57.12,92.14v-1a4.69,4.69,0,0,1,4.69-4.69H144.1a4.69,4.69,0,0,1,4.69,4.69v1.9a4.69,4.69,0,0,1-4.69,4.69H61.81a4.69,4.69,0,0,1-4.69-4.69Z" transform="translate(-0.2 -0.01)"/><polygon class="cls-8" points="95.75 90.12 96.11 90.12 96.11 93.23 98.02 93.23 98.02 93.54 95.75 93.54 95.75 90.12"/><path class="cls-8" d="M100.71,92.27a1,1,0,0,0-1-.91,1,1,0,1,0,.73,1.62A.93.93,0,0,0,100.71,92.27Zm-2.26,0A1.31,1.31,0,0,1,99.76,91a1.31,1.31,0,0,1,0,2.61,1.28,1.28,0,0,1-1.31-1.3Z" transform="translate(-0.2 -0.01)"/><path class="cls-8" d="M103.81,92.2a1,1,0,0,0-1.66-.73,1,1,0,0,0,.68,1.67.91.91,0,0,0,.7-.25,1,1,0,0,0,.28-.69Zm.34-1.22v2.26a1.12,1.12,0,0,1-1.28,1.27,1.78,1.78,0,0,1-1.19-.39l.18-.27a1.48,1.48,0,0,0,1,.35c.64,0,.94-.29.94-.93V93a1.16,1.16,0,0,1-1,.49,1.24,1.24,0,1,1,0-2.48,1.14,1.14,0,0,1,1,.51V91Z" transform="translate(-0.2 -0.01)"/><path class="cls-8" d="M106.39,91h.42v2.57h-.42Zm-.08-.81a.26.26,0,0,1,.26-.25.25.25,0,0,1,.25.25.26.26,0,0,1-.25.26A.26.26,0,0,1,106.31,90.17Z" transform="translate(-0.2 -0.01)"/><path class="cls-8" d="M110.06,92.06v1.49h-.34V92.1a.73.73,0,0,0-.19-.6.75.75,0,0,0-.58-.23.87.87,0,0,0-.67.26.84.84,0,0,0-.23.67v1.35h-.35V91H108v.48a1.07,1.07,0,0,1,1-.49,1,1,0,0,1,1,1.09Z" transform="translate(-0.2 -0.01)"/><path class="cls-6" d="M9.36,161.17l-.55,3.12.46.1c2.07.42,10.55,2.08,12,1.87,1.62-.23-4.58-2.67-4.58-2.67l.2-1.32Z" transform="translate(-0.2 -0.01)"/><path class="cls-9" d="M11.56,164.64a2.65,2.65,0,0,0-.72-1.76,2.54,2.54,0,0,0-1.7-.83l-.33,2.12Z" transform="translate(-0.2 -0.01)"/><path class="cls-9" d="M19.7,164.89s2.15,1,1.82,1.33-9-1-12.72-1.93l0-.17,10,1.65S19.28,164.85,19.7,164.89Z" transform="translate(-0.2 -0.01)"/><path class="cls-3" d="M8.73,164.1a.5.5,0,0,0,.13,0l.37.08,1.36.27c1.15.23,2.75.51,4.52.79s3.39.48,4.55.62l1.38.16.38,0h.13l-.13,0-.37-.05-1.38-.18c-1.17-.16-2.77-.38-4.54-.66s-3.39-.55-4.53-.76l-1.37-.24-.37-.06Z" transform="translate(-0.2 -0.01)"/><path class="cls-3" d="M18.88,165.88a2.51,2.51,0,0,1,.36-.61,3,3,0,0,1,.54-.46,1,1,0,0,0-.62.4A1,1,0,0,0,18.88,165.88Z" transform="translate(-0.2 -0.01)"/><path class="cls-3" d="M16.82,164.41a1.65,1.65,0,0,0,.29-.26c.14-.15.23-.29.21-.31s-.15.1-.28.25S16.8,164.39,16.82,164.41Z" transform="translate(-0.2 -0.01)"/><path class="cls-3" d="M16.26,164.06a1.22,1.22,0,0,0,.3-.16c.14-.12.25-.23.24-.26s-.15.05-.29.16S16.25,164,16.26,164.06Z" transform="translate(-0.2 -0.01)"/><path class="cls-3" d="M16,163.21a1.82,1.82,0,1,0,.43,0A.9.9,0,0,0,16,163.21Z" transform="translate(-0.2 -0.01)"/><path class="cls-3" d="M15.93,162.69a.75.75,0,0,0,.42.36.49.49,0,0,0,.47,0,2.35,2.35,0,0,0-.43-.19,1.6,1.6,0,0,0-.46-.17Z" transform="translate(-0.2 -0.01)"/><path class="cls-3" d="M17.18,163.79a1.61,1.61,0,0,0,.49.07,4.71,4.71,0,0,0,.53,0,1.57,1.57,0,0,0,.31-.08.28.28,0,0,0,.15-.13.2.2,0,0,0,0-.21.89.89,0,0,0-1.14.09.93.93,0,0,0-.22.3.41.41,0,0,0,0,.13,1.53,1.53,0,0,1,.29-.38.87.87,0,0,1,.46-.2.73.73,0,0,1,.57.12c.07.07,0,.16-.07.19a1,1,0,0,1-.29.08,3.05,3.05,0,0,1-.52,0Z" transform="translate(-0.2 -0.01)"/><path class="cls-3" d="M17.3,163.83a.55.55,0,0,0,.11-.33.67.67,0,0,0-.08-.37.49.49,0,0,0-.36-.31.2.2,0,0,0-.14.06.22.22,0,0,0,0,.14.59.59,0,0,0,0,.23,2.68,2.68,0,0,0,.18.33.94.94,0,0,0,.25.24s-.08-.1-.19-.28a1.68,1.68,0,0,1-.16-.33c-.05-.11-.07-.3.06-.3s.23.15.29.25a.84.84,0,0,1,.08.34A1.24,1.24,0,0,1,17.3,163.83Z" transform="translate(-0.2 -0.01)"/><path class="cls-3" d="M9.2,162.05a2,2,0,0,1,.56.11,2.44,2.44,0,0,1,1.14.69,2.47,2.47,0,0,1,.59,1.2,3.57,3.57,0,0,1,.06.56.45.45,0,0,0,0-.16,3,3,0,0,0,0-.42,2.31,2.31,0,0,0-1.79-1.94,2,2,0,0,0-.42-.05Z" transform="translate(-0.2 -0.01)"/><path class="cls-3" d="M12.62,164.06a3.79,3.79,0,0,0,1.09.32,3.49,3.49,0,0,0,1.12.09s-.5-.08-1.11-.19A11.17,11.17,0,0,0,12.62,164.06Z" transform="translate(-0.2 -0.01)"/><path class="cls-3" d="M11.15,163.83c-.05,0,.07.11.14.23s.12.23.19.23.15-.11,0-.25S11.19,163.81,11.15,163.83Z" transform="translate(-0.2 -0.01)"/><path class="cls-3" d="M10.69,163.05a.33.33,0,0,0,.14.24c.14.11.24.19.27.18s0-.13-.14-.25S10.73,163,10.69,163.05Z" transform="translate(-0.2 -0.01)"/><path class="cls-3" d="M10,162.63s.11.07.22.17.17.22.2.2a.39.39,0,0,0-.16-.35C10.05,162.53,10,162.59,10,162.63Z" transform="translate(-0.2 -0.01)"/><path class="cls-3" d="M9.39,162.4a.65.65,0,0,0,.17.29c.11.09.23.12.25.06s-.05-.2-.16-.29S9.42,162.32,9.39,162.4Z" transform="translate(-0.2 -0.01)"/><path class="cls-6" d="M49.13,163.83l.28,3.16.48,0c2.12-.12,10.72-.75,12.07-1.33,1.51-.65-5.09-1.38-5.09-1.38l-.15-1.32Z" transform="translate(-0.2 -0.01)"/><path class="cls-9" d="M52.16,166.62a2.65,2.65,0,0,0-3-1.87l.24,2.12Z" transform="translate(-0.2 -0.01)"/><path class="cls-9" d="M60.1,164.73s2.34.4,2.1.8S53.29,166.9,49.41,167v-.17l10.15-1S59.66,164.8,60.1,164.73Z" transform="translate(-0.2 -0.01)"/><path class="cls-3" d="M49.28,166.83h.14l.37,0,1.39-.1c1.17-.09,2.79-.23,4.57-.42s3.4-.43,4.56-.58l1.37-.23.37-.06a.61.61,0,0,0,.13,0h-.13l-.37.09-1.38.19c-1.17.15-2.78.35-4.56.55s-3.39.34-4.56.45l-1.37.09-.38,0Z" transform="translate(-0.2 -0.01)"/><path class="cls-3" d="M59.56,165.91a2.7,2.7,0,0,1,.18-.69,3.43,3.43,0,0,1,.42-.58,1,1,0,0,0-.49.54,1,1,0,0,0-.11.73Z" transform="translate(-0.2 -0.01)"/><path class="cls-3" d="M57.18,165a.87.87,0,0,0,.26-.32.73.73,0,0,0,.16-.36,1.73,1.73,0,0,0-.26.32C57.22,164.84,57.15,165,57.18,165Z" transform="translate(-0.2 -0.01)"/><path class="cls-3" d="M56.53,164.75a.76.76,0,0,0,.25-.2c.12-.14.19-.26.17-.28a.83.83,0,0,0-.25.21C56.59,164.61,56.51,164.74,56.53,164.75Z" transform="translate(-0.2 -0.01)"/><path class="cls-3" d="M56.06,164.32a.3.3,0,0,0,.4,0,.49.49,0,0,0,.39-.27.31.31,0,0,0-.42,0A.53.53,0,0,0,56.06,164.32Z" transform="translate(-0.2 -0.01)"/><path class="cls-3" d="M55.87,163.68c.14.25.3.34.46.27s.31-.1.45-.39a.83.83,0,0,0-.46.07.71.71,0,0,0-.45.05Z" transform="translate(-0.2 -0.01)"/><path class="cls-3" d="M57.36,164.32a1.35,1.35,0,0,0,.49-.06,3.39,3.39,0,0,0,.51-.17,1.51,1.51,0,0,0,.28-.15.28.28,0,0,0,.11-.17.21.21,0,0,0-.1-.19.92.92,0,0,0-1.08.39.82.82,0,0,0-.12.34.29.29,0,0,0,0,.13,1.57,1.57,0,0,1,.18-.42.91.91,0,0,1,.38-.32.8.8,0,0,1,.59,0c.08,0,.06.14,0,.2a1.35,1.35,0,0,1-.26.15,4.14,4.14,0,0,1-.49.19A3.19,3.19,0,0,0,57.36,164.32Z" transform="translate(-0.2 -0.01)"/><path class="cls-3" d="M57.49,164.33a.43.43,0,0,0,0-.35.69.69,0,0,0-.17-.34.5.5,0,0,0-.42-.2.2.2,0,0,0-.13.24.53.53,0,0,0,.11.21,1.33,1.33,0,0,0,.26.27.75.75,0,0,0,.3.17l-.26-.22a2,2,0,0,1-.23-.27c-.08-.1-.15-.28,0-.31s.26.08.34.17a.92.92,0,0,1,.18.3A1.88,1.88,0,0,1,57.49,164.33Z" transform="translate(-0.2 -0.01)"/><path class="cls-3" d="M49.21,164.73a3.3,3.3,0,0,1,.56,0,2.39,2.39,0,0,1,2.17,1.36c.15.32.19.54.2.53s0-.06,0-.16A1.76,1.76,0,0,0,52,166a2.33,2.33,0,0,0-2.23-1.41,1.47,1.47,0,0,0-.42.06A.43.43,0,0,0,49.21,164.73Z" transform="translate(-0.2 -0.01)"/><path class="cls-3" d="M53,165.92a2.69,2.69,0,0,0,1.13,0,3.07,3.07,0,0,0,1.1-.35,8.89,8.89,0,0,0-1.11.2C53.54,165.87,53,165.87,53,165.92Z" transform="translate(-0.2 -0.01)"/><path class="cls-3" d="M51.54,165.94a1.7,1.7,0,0,0,.19.21c.1.1.16.21.21.2s0-.12-.08-.25S51.56,165.91,51.54,165.94Z" transform="translate(-0.2 -0.01)"/><path class="cls-3" d="M50.9,165.3a.59.59,0,0,0,.18.27c.12.11.22.17.24.14s0-.14-.16-.26S50.93,165.27,50.9,165.3Z" transform="translate(-0.2 -0.01)"/><path class="cls-3" d="M50.07,165.15c0,.07.1,0,.22.1s.21.22.22.16a.5.5,0,0,0-.2-.39C50.17,164.94,50.06,165.15,50.07,165.15Z" transform="translate(-0.2 -0.01)"/><path class="cls-3" d="M49.48,165a.41.41,0,0,0,.19.32.24.24,0,0,0,.23,0,.53.53,0,0,0-.19-.32C49.6,165,49.49,164.93,49.48,165Z" transform="translate(-0.2 -0.01)"/><path class="cls-3" d="M51.34,44.22c-.61-3.24-4.19-5-5.59-8.06-.54-1.16-.74-2.47-1.34-3.6A5.79,5.79,0,0,0,37.34,30l-.23.35c1.45,3,2.9,5.13,4.34,8.17a10.73,10.73,0,0,1,1.16,3.33,3.68,3.68,0,0,1-1.09,3.22A28.12,28.12,0,0,1,39,46.37a4.07,4.07,0,0,0-1.6,3.79A6.92,6.92,0,0,0,39.3,54c.94,1,2.41,1.89,3.64,1.27a5.59,5.59,0,0,0,1.47-1.48,19.77,19.77,0,0,1,3.39-2.62C50,49.54,51.85,46.92,51.34,44.22Z" transform="translate(-0.2 -0.01)"/><path class="cls-10" d="M82.52,59.3c-.81.74-5.24,4.46-5.24,4.46l-4.4-4c.11-.33,1.19-2.18,1.31-2.64a3.36,3.36,0,0,0,.11-1.22A5.51,5.51,0,0,0,74,54.39c-.19-.43.24-.88.61-.66a3.85,3.85,0,0,1,.92,2.9c0,1.52,5.94-2,6.78-1.11Z" transform="translate(-0.2 -0.01)"/><path class="cls-6" d="M44.72,53.32,59.3,70.78,72.7,58.67l5.84,5.7S61.73,82.87,59.17,82.74s-11.28-5.9-11.28-5.9Z" transform="translate(-0.2 -0.01)"/><path class="cls-3" d="M77.83,50.72a.24.24,0,0,0-.3.14l-4,10a.37.37,0,0,0,.19.48l4.71,2.25a.35.35,0,0,0,.3,0,.37.37,0,0,0,.21-.2L83.42,53a.35.35,0,0,0,0-.3.34.34,0,0,0-.22-.2Z" transform="translate(-0.2 -0.01)"/><polygon class="cls-11" points="77.5 51.43 73.86 60.35 78.79 62.59 82.52 53.13 77.5 51.43"/><path class="cls-3" d="M76.28,67a6.33,6.33,0,0,1-1-.74c-.61-.48-1.44-1.19-2.3-2A30.55,30.55,0,0,1,70.86,62a6.21,6.21,0,0,1-.76-1,9.49,9.49,0,0,1,.88.91c.53.57,1.27,1.35,2.12,2.19s1.65,1.55,2.24,2.06a8.48,8.48,0,0,1,.94.86Z" transform="translate(-0.2 -0.01)"/><path class="cls-3" d="M72.09,60.37s-.16.17-.13.48a.59.59,0,0,0,.21.43.55.55,0,0,0,.57,0A.53.53,0,0,0,73,60.8a.59.59,0,0,0-.27-.43,1,1,0,0,0-.48-.12.29.29,0,0,1,.14-.08.62.62,0,0,1,.42.07.7.7,0,0,1,.39.51.73.73,0,0,1-.36.71.75.75,0,0,1-.79,0,.69.69,0,0,1-.25-.6.68.68,0,0,1,.15-.4A.24.24,0,0,1,72.09,60.37Z" transform="translate(-0.2 -0.01)"/><path class="cls-3" d="M58.74,75.88a2.07,2.07,0,0,1-.22-.76,6.94,6.94,0,0,1,.42-3.74,2.58,2.58,0,0,1,.38-.69,15.83,15.83,0,0,0-.63,2.55,15.52,15.52,0,0,0,.05,2.64Z" transform="translate(-0.2 -0.01)"/><path class="cls-3" d="M60.83,75.74a2,2,0,0,1-.47-.65,8.22,8.22,0,0,1-1.08-3.71,2.44,2.44,0,0,1,0-.81,20.19,20.19,0,0,0,.48,2.67,22.58,22.58,0,0,0,1,2.5Z" transform="translate(-0.2 -0.01)"/><polygon class="cls-1" points="77.59 53.09 75.17 59.09 78.79 60.57 81.31 54.44 77.59 53.09"/><path class="cls-6" d="M76.24,58.34l0-.05a.31.31,0,0,1,.16-.16.29.29,0,0,1,.24,0L78.8,59a.27.27,0,0,1,.16.17.25.25,0,0,1,0,.24l0,.09a.3.3,0,0,1-.16.17.33.33,0,0,1-.24,0l-2.14-.89a.3.3,0,0,1-.16-.17.26.26,0,0,1,0-.24Z" transform="translate(-0.2 -0.01)"/><rect class="cls-12" x="79.11" y="53.35" width="0.42" height="2.86" transform="translate(-0.1 109.7) rotate(-69.37)"/><rect class="cls-7" x="78.33" y="54.69" width="0.82" height="3.16" transform="translate(-1.87 110.13) rotate(-69.37)"/><rect class="cls-7" x="77.84" y="55.92" width="0.82" height="3.16" transform="translate(-3.33 110.46) rotate(-69.37)"/><path class="cls-10" d="M82.37,55.52c-.69.11-1.52.18-2.2.29a1.28,1.28,0,0,0-.55.18.42.42,0,0,0-.13.53c.1.19.37.2.59.2l1.51,0a7.71,7.71,0,0,0-1.9.32c-.28.09-.59.28-.6.58a.57.57,0,0,0,.5.5h.79s1,0,1.07.15c-.64,0-1.49.13-2.12.19-.17,0-.26.25-.3.42a.4.4,0,0,0,.19.45.54.54,0,0,0,.25,0l2.5-.08" transform="translate(-0.2 -0.01)"/><path class="cls-6" d="M39.56,52.28a8.83,8.83,0,0,1,5.16,1c1.92,1.27,8.66,20.58,8.4,26.31s.47,15.84,1.65,20,2.07,40.28-7.21,57.48L30.29,154.7l5.4-46.4-.55-42.09Z" transform="translate(-0.2 -0.01)"/><path class="cls-13" d="M38.57,52.28a8.83,8.83,0,0,1,5.16,1c1.92,1.27,8.66,20.58,8.4,26.31s.47,15.84,1.65,20,2.07,40.28-7.21,57.48L30.78,154.7l3.91-46.4-.57-42.09Z" transform="translate(-0.2 -0.01)"/><path class="cls-14" d="M32.21,51.39s-9.5-1-7,12.56l2.44,14.29,15.52,9.38c2.09.57.31-9.75,3.47-14.52a5.88,5.88,0,0,0,1.18-3.95c.3-3.11-2.2-5.05-2.54-8.2-.39-4.57-.38-7.09-2.36-7.61l-10.74-2" transform="translate(-0.2 -0.01)"/><path class="cls-3" d="M45.49,59.86a4.23,4.23,0,0,0,0,2,8,8,0,0,0,.85,2,18,18,0,0,1,1.21,2.45,7.81,7.81,0,0,1,.06,4.92,7,7,0,0,1-.6,1.38,2.32,2.32,0,0,1-.31.46,14.55,14.55,0,0,0,.77-1.88,8,8,0,0,0-.13-4.8A18.16,18.16,0,0,0,46.16,64a8,8,0,0,1-.81-2.09,3.84,3.84,0,0,1,0-1.51,1.82,1.82,0,0,1,.11-.4C45.46,59.91,45.48,59.86,45.49,59.86Z" transform="translate(-0.2 -0.01)"/><path class="cls-10" d="M40.73,52.37c-.22-2.34-.42-4.8-.42-4.8s3-.8,3.2-4.79a60.89,60.89,0,0,0-.93-10.43V32C38.07,30.68,32.74,30.74,30,34.5l2.12,19a4.09,4.09,0,0,0,4.69,3.46A4.3,4.3,0,0,0,40.73,52.37Z" transform="translate(-0.2 -0.01)"/><path class="cls-3" d="M42.6,37.16a.51.51,0,0,1-.79.48.48.48,0,0,1-.2-.32.51.51,0,0,1,.42-.56.54.54,0,0,1,.37.08A.48.48,0,0,1,42.6,37.16Z" transform="translate(-0.2 -0.01)"/><path class="cls-3" d="M42.6,36.61c-.06.07-.47-.17-1-.12s-.91.37-1,.31,0-.15.18-.3a1.39,1.39,0,0,1,.78-.32,1.36,1.36,0,0,1,.81.17A.53.53,0,0,1,42.6,36.61Z" transform="translate(-0.2 -0.01)"/><path class="cls-3" d="M37,37.9a.5.5,0,0,1-.42.55.47.47,0,0,1-.38-.09A.53.53,0,0,1,36,38a.52.52,0,0,1,.43-.56.49.49,0,0,1,.37.09A.46.46,0,0,1,37,37.9Z" transform="translate(-0.2 -0.01)"/><path class="cls-3" d="M37,37.36c-.06.08-.47-.17-1-.12s-.91.37-1,.31,0-.15.18-.3a1.46,1.46,0,0,1,.78-.32,1.34,1.34,0,0,1,.81.17C36.91,37.22,37,37.33,37,37.36Z" transform="translate(-0.2 -0.01)"/><path class="cls-3" d="M39.31,41.19a3.17,3.17,0,0,1,.85-.24c.14,0,.26-.08.28-.17a.65.65,0,0,0-.14-.4l-.51-1A18.13,18.13,0,0,1,38.6,36.7,16.73,16.73,0,0,1,40,39.26l.5,1a.85.85,0,0,1,.13.54.33.33,0,0,1-.21.22,1,1,0,0,1-.23.06A3.25,3.25,0,0,1,39.31,41.19Z" transform="translate(-0.2 -0.01)"/><path class="cls-15" d="M40.32,47.57a10,10,0,0,1-5.4-.89s1.54,2.57,5.44,1.82Z" transform="translate(-0.2 -0.01)"/><path class="cls-6" d="M39.21,42.52a1,1,0,0,0-.92-.27.84.84,0,0,0-.58.39.56.56,0,0,0,0,.65.68.68,0,0,0,.73.11,2,2,0,0,0,.65-.49.46.46,0,0,0,.14-.17.16.16,0,0,0,0-.2" transform="translate(-0.2 -0.01)"/><path class="cls-3" d="M37.75,41.72c.09,0,.15.57.69.94s1.17.24,1.18.33-.13.13-.39.16a1.42,1.42,0,0,1-1-.24,1.26,1.26,0,0,1-.54-.79C37.66,41.87,37.71,41.72,37.75,41.72Z" transform="translate(-0.2 -0.01)"/><path class="cls-3" d="M22.12,105.77l-6,24.83s-7.18,29.73-7.42,30.52l-.23.92,10.12.76,17.54-55.15Z" transform="translate(-0.2 -0.01)"/><path class="cls-3" d="M40.34,123.2C42,131.12,48,164.33,48,164.33l10.27-1.06L52.4,120.91a14,14,0,0,0-.67-3.25L42.14,88.9l-18-11.48c-.18,0-2.92,7.41-2.54,12.55a13.18,13.18,0,0,0,2.32,6.4c1.14,1.68,2.74,4,3.1,4.56C27.54,101.79,40.34,123.2,40.34,123.2Z" transform="translate(-0.2 -0.01)"/><path class="cls-6" d="M19.82,87.39a53.21,53.21,0,0,0-1.22,5.43c-1.16,6.65-4.09,22.84-6,27.13-2.41,5.43-6.33,25.93-5.12,29.68s27.44,7.54,27.44,7.54,1.5-24.57,3-30.75,4.66-19.75,5.12-27.73.3-21.86-2.26-30.45-8.45-17.62-8.45-17.62S27.3,52,25.58,54c0,0-2.09,2.57-2.12,5S22.3,73.11,21.54,79.86A66.22,66.22,0,0,1,19.82,87.39Z" transform="translate(-0.2 -0.01)"/><path class="cls-3" d="M43.08,98.28a.24.24,0,0,1,0-.12V97.8c0-.33,0-.8-.07-1.39a45.48,45.48,0,0,0-.49-5.08,17.44,17.44,0,0,0-.92-3.4,13,13,0,0,0-2-3.45c-.87-1.11-1.9-2.19-2.9-3.39a18.84,18.84,0,0,1-1.44-1.89A10.66,10.66,0,0,1,34.13,77a7.12,7.12,0,0,1-.27-4.77,9.36,9.36,0,0,1,1.11-2,3.67,3.67,0,0,0,.42-1,1.2,1.2,0,0,0,0-.5,1,1,0,0,0-.17-.46,1.52,1.52,0,0,0-.79-.57c-.31-.11-.65-.2-1-.35a1.88,1.88,0,0,1-.79-.66,2.48,2.48,0,0,1-.34-.94,6,6,0,0,1,.05-1.85c.08-.58.16-1.14.24-1.67.31-2.12.56-3.85.74-5l.21-1.37.07-.36a.5.5,0,0,1,0-.12.24.24,0,0,1,0,.12,1.33,1.33,0,0,1,0,.37c0,.33-.09.78-.17,1.37-.16,1.21-.39,2.93-.67,5.06-.07.53-.15,1.09-.23,1.67a6.39,6.39,0,0,0,0,1.8,2.37,2.37,0,0,0,.32.85,1.66,1.66,0,0,0,.72.59c.29.14.63.22,1,.35a1.69,1.69,0,0,1,.89.64,1.18,1.18,0,0,1,.2.54,1.56,1.56,0,0,1,0,.57,3.88,3.88,0,0,1-.46,1,9.77,9.77,0,0,0-1.09,2,7,7,0,0,0,.27,4.62,13.41,13.41,0,0,0,2.51,4c1,1.18,2,2.27,2.9,3.39a13.64,13.64,0,0,1,2,3.56,16.9,16.9,0,0,1,.9,3.42,39.27,39.27,0,0,1,.43,5.09c0,.59,0,1,0,1.38v.36A.84.84,0,0,0,43.08,98.28Z" transform="translate(-0.2 -0.01)"/><path class="cls-3" d="M39.73,101.64a.3.3,0,0,1,.12-.14.67.67,0,0,1,.5-.08.69.69,0,0,1,.57.5.76.76,0,0,1-1.25.77.73.73,0,0,1,.13-1.13c.11-.06.17-.06.18,0a.85.85,0,0,0-.34.49.53.53,0,0,0,.17.54.56.56,0,0,0,.91-.57.53.53,0,0,0-.4-.4,1,1,0,0,0-.59.07Z" transform="translate(-0.2 -0.01)"/><path class="cls-3" d="M36.92,116.25a.32.32,0,0,1,.13-.13.65.65,0,0,1,.49-.09.7.7,0,0,1,.57.5.75.75,0,0,1-1.24.77.71.71,0,0,1,.12-1.13c.1-.06.18-.06.18,0a1,1,0,0,0-.34.48.54.54,0,0,0,.17.54.62.62,0,0,0,.68.07.61.61,0,0,0,.23-.64.52.52,0,0,0-.42-.4A1,1,0,0,0,36.92,116.25Z" transform="translate(-0.2 -0.01)"/><path class="cls-3" d="M36.83,98a.33.33,0,0,1,0,.14,2.43,2.43,0,0,1,0,.42c0,.38-.09.92-.17,1.6-.16,1.38-.42,3.39-.78,5.86-.18,1.23-.42,2.58-.7,4a13.78,13.78,0,0,1-.61,2.2,2.44,2.44,0,0,1-.14.28,1,1,0,0,1-.21.24,2.22,2.22,0,0,1-.52.34,7.06,7.06,0,0,1-1.17.41,27.92,27.92,0,0,1-5.16.57,51.57,51.57,0,0,1-5.56-.06l-.24,0a.36.36,0,0,1-.25-.18,1.37,1.37,0,0,1-.13-.49,7.23,7.23,0,0,1,0-.93,15.07,15.07,0,0,1,.15-1.79c.14-1.19.32-2.34.51-3.45.38-2.23.8-4.33,1.22-6.25v-.07h.09a61,61,0,0,0,10-1.74c1.19-.32,2.12-.6,2.75-.79l.74-.23.23-.07-.06,0-.19.07c-.16.06-.39.15-.7.25-.62.21-1.55.51-2.74.85A56.25,56.25,0,0,1,23.09,101l.09-.07c-.43,1.92-.82,4-1.2,6.24-.18,1.12-.36,2.27-.5,3.44-.06.59-.12,1.19-.14,1.78a5.41,5.41,0,0,0,0,.9,1.4,1.4,0,0,0,.11.4.12.12,0,0,0,.09.07l.23,0a53.86,53.86,0,0,0,5.54.07,27.07,27.07,0,0,0,5.08-.57,6.63,6.63,0,0,0,1.14-.38,1.33,1.33,0,0,0,.78-.76,13.43,13.43,0,0,0,.61-2.17c.3-1.42.53-2.77.73-4,.39-2.47.66-4.46.84-5.84.1-.69.17-1.22.22-1.6,0-.17,0-.31.06-.42S36.83,98,36.83,98Z" transform="translate(-0.2 -0.01)"/><path class="cls-3" d="M36.56,101.06a2.17,2.17,0,0,1-.5.26c-.33.16-.83.36-1.44.59a27.08,27.08,0,0,1-10,1.67,13.27,13.27,0,0,1-1.54-.1,2.8,2.8,0,0,1-.57-.08,2.71,2.71,0,0,1,.57,0c.37,0,.89,0,1.54,0a31,31,0,0,0,10-1.67c.62-.21,1.11-.39,1.45-.52A2.85,2.85,0,0,1,36.56,101.06Z" transform="translate(-0.2 -0.01)"/><path class="cls-14" d="M12.77,89.1l0-.2c0-.14.08-.33.13-.58.12-.52.3-1.27.53-2.23.46-1.93,1.17-4.72,2.09-8.16l1.52-5.61c.55-2,1.14-4.18,1.83-6.43A51.86,51.86,0,0,1,21.51,59a34.57,34.57,0,0,1,1.88-3.43,12.51,12.51,0,0,1,1.18-1.63,4.91,4.91,0,0,1,1.59-1.27,2.73,2.73,0,0,1,2.06-.16,3.49,3.49,0,0,1,1.63,1.2A7,7,0,0,1,31,57.41c.21,2.55.42,5,.62,7.36.39,4.69.74,8.9,1,12.45s.52,6.4.68,8.39c.08,1,.14,1.76.17,2.29a3.93,3.93,0,0,0,.05.59v.21a1,1,0,0,0,0-.2,5.42,5.42,0,0,1-.06-.6l-.22-2.28c-.18-2-.42-4.85-.75-8.39s-.68-7.76-1.09-12.44c-.2-2.35-.42-4.81-.63-7.35a6.91,6.91,0,0,0-1.14-3.62,3.36,3.36,0,0,0-1.53-1.12,2.48,2.48,0,0,0-1.89.15,4.81,4.81,0,0,0-1.53,1.23,11.29,11.29,0,0,0-1.15,1.59,31,31,0,0,0-1.87,3.39,52.79,52.79,0,0,0-2.62,6.87c-.69,2.25-1.27,4.4-1.84,6.42S16.17,76.24,15.7,78c-.94,3.43-1.67,6.22-2.16,8.14-.24,1-.42,1.7-.56,2.23l-.16.57A2,2,0,0,1,12.77,89.1Z" transform="translate(-0.2 -0.01)"/><path class="cls-3" d="M11.73,87.64c-.17.66-3.25,18.2-3.25,18.2l22.93.75L34.57,88.4Z" transform="translate(-0.2 -0.01)"/><path class="cls-14" d="M34.33,88.74a1.56,1.56,0,0,1-.2.16l-.62.42c-.54.35-1.34.85-2.34,1.4S29,91.94,27.58,92.6c-.69.32-1.4.66-2.2,1a7.82,7.82,0,0,1-2.54.37A12.1,12.1,0,0,1,18,92.66a18.24,18.24,0,0,1-3.4-2.22c-.89-.73-1.57-1.37-2-1.82a6.47,6.47,0,0,1-.53-.53,1.54,1.54,0,0,1-.17-.19,1.66,1.66,0,0,1,.21.16l.55.5c.48.42,1.17,1,2.07,1.75a18.48,18.48,0,0,0,3.39,2.15,11.94,11.94,0,0,0,4.72,1.2,7.81,7.81,0,0,0,2.49-.35c.76-.28,1.49-.62,2.18-.93,1.37-.65,2.59-1.27,3.6-1.83s1.81-1,2.37-1.34l.64-.37A.67.67,0,0,1,34.33,88.74Z" transform="translate(-0.2 -0.01)"/><path class="cls-14" d="M32.93,89.51c.06,0-.55,3.82-1.37,8.54s-1.53,8.5-1.59,8.5.55-3.82,1.37-8.53S32.87,89.5,32.93,89.51Z" transform="translate(-0.2 -0.01)"/><path class="cls-14" d="M22.14,93.21c-.06.57-.12,1.14-.18,1.69a1.63,1.63,0,0,0,0,.54.52.52,0,0,0,.35.38.51.51,0,0,0,.51-.29,1.5,1.5,0,0,0,.13-.62L23,93.09H22.3" transform="translate(-0.2 -0.01)"/><path class="cls-6" d="M26.87,52.94c1.86-.63,3.42,1.79,3.63,3.74a41.48,41.48,0,0,1,.13,6.78,39.81,39.81,0,0,1-3.36,13.08l19.18,2.87-.7,7.38-24.26-2.6a5.75,5.75,0,0,1-4.89-7.41c2.17-7.07,5.71-17.23,6.49-18.91C24.18,55.6,24.3,53.79,26.87,52.94Z" transform="translate(-0.2 -0.01)"/><path class="cls-3" d="M20.58,84h.12l.37.05,1.4.21c1.23.17,3,.43,5.26.69,4.48.53,10.78,1.15,18,1.69l-.11.1c.22-2.35.46-4.82.7-7.37l.1.12L27.26,76.6h-.11l0-.1c1.24-3.86,2.2-7,2.76-9.3.29-1.12.49-2,.61-2.61l.14-.68.06-.24a1.47,1.47,0,0,1,0,.24c0,.16-.05.39-.11.7-.11.6-.3,1.49-.57,2.62-.54,2.25-1.47,5.46-2.69,9.32l-.08-.11,19.19,2.84h.1v.11c-.24,2.54-.48,5-.7,7.36v.11h-.1c-7.25-.57-13.55-1.22-18-1.79-2.24-.28-4-.55-5.25-.75l-1.43-.24L20.7,84Z" transform="translate(-0.2 -0.01)"/><path class="cls-3" d="M42,86.46a34.82,34.82,0,0,1,.24-3.82,32.49,32.49,0,0,1,.47-3.81,32.35,32.35,0,0,1-.25,3.81A32.64,32.64,0,0,1,42,86.46Z" transform="translate(-0.2 -0.01)"/><path class="cls-3" d="M44.41,80.08a.18.18,0,0,1,.14,0,.52.52,0,0,1,.33.22.54.54,0,0,1,0,.61.66.66,0,0,1-.68.31.65.65,0,0,1-.51-.54.64.64,0,0,1,.2-.57c.28-.23.52-.15.51-.13a.88.88,0,0,0-.4.24.48.48,0,0,0,.25.79.47.47,0,0,0,.45-.2.42.42,0,0,0,0-.43C44.62,80.12,44.4,80.11,44.41,80.08Z" transform="translate(-0.2 -0.01)"/><polygon class="cls-1" points="50.39 77.22 51.26 86.31 55.69 86.31 56.75 77.22 50.39 77.22"/><path class="cls-14" d="M50.59,76.06a1.88,1.88,0,0,0-.43,1.2h7.21a1.35,1.35,0,0,0-.42-1.2Z" transform="translate(-0.2 -0.01)"/><polygon class="cls-14" points="51.21 75.22 50.97 76.11 56.4 76.16 56.04 75.21 51.21 75.22"/><path class="cls-14" d="M50.49,79.51c0,.08.53,4.57.53,4.57h5.42L57,79.51Z" transform="translate(-0.2 -0.01)"/><path class="cls-10" d="M50.83,78.71l-.14,1.52,5.24.12s0,1.77-.53,2.3c0,0,.53,1.06-.06,1.65s-.94.42-.94.42.24,1.18-.35,1.48S45.82,86,45.82,86l.47-4.93L48,81A2.51,2.51,0,0,1,50.83,78.71Z" transform="translate(-0.2 -0.01)"/><path class="cls-3" d="M44.2,32.39a4,4,0,0,0-1.67-2.12,2.9,2.9,0,0,0-1.78-.36h0v-.13a2.54,2.54,0,0,0-2.85-1.05,12.39,12.39,0,0,0-3.35,1.59c-1.39.75-2.73,1.6-4.07,2.46a10.17,10.17,0,0,0-3,2.51,5.2,5.2,0,0,0-.88,3.94c.27,1.49,1.19,3,.65,4.41-.37.94-1.28,1.52-1.89,2.33a3.77,3.77,0,0,0-.09,4.39,8.68,8.68,0,0,0,2.43,1.9A39.44,39.44,0,0,0,31.76,55a4.79,4.79,0,0,0,4.71,0,4.71,4.71,0,0,0,1.6-4.54,21.14,21.14,0,0,0-1.7-4.76,26.09,26.09,0,0,1-1.74-6.36,4.18,4.18,0,0,1,.22-2.58,5.57,5.57,0,0,1,1.69-1.62,13.41,13.41,0,0,0,3.64-4.15,5.36,5.36,0,0,0,1.46,2,12.69,12.69,0,0,0,2.85,2,6.72,6.72,0,0,0-.29-2.71Z" transform="translate(-0.2 -0.01)"/><path class="cls-6" d="M178,158.35a3.43,3.43,0,0,1,1.27-3.06,8.88,8.88,0,0,0,2.26-2.6c.7-1.74-.22-4,1-5.45.71-.85,2-1.12,2.58-2a4.66,4.66,0,0,0,.57-1.63,16.45,16.45,0,0,1,4.17-7.69,14.43,14.43,0,0,1-1.67,7.43,9.7,9.7,0,0,0-1.24,2.82c-.27,1.65.65,3.36.23,5-.47,1.86-2.57,3.09-2.68,5-.09,1.62,1.31,3,1.2,4.67a4.32,4.32,0,0,1-.74,1.91,6.43,6.43,0,0,1-5.9,3.44l-3.41.1Z" transform="translate(-0.2 -0.01)"/><path class="cls-13" d="M178,158.35a3.43,3.43,0,0,1,1.27-3.06,8.88,8.88,0,0,0,2.26-2.6c.7-1.74-.22-4,1-5.45.71-.85,2-1.12,2.58-2a4.66,4.66,0,0,0,.57-1.63,16.45,16.45,0,0,1,4.17-7.69,14.43,14.43,0,0,1-1.67,7.43,9.7,9.7,0,0,0-1.24,2.82c-.27,1.65.65,3.36.23,5-.47,1.86-2.57,3.09-2.68,5-.09,1.62,1.31,3,1.2,4.67a4.32,4.32,0,0,1-.74,1.91,6.43,6.43,0,0,1-5.9,3.44l-3.41.1Z" transform="translate(-0.2 -0.01)"/><path class="cls-3" d="M174.89,166.33a2.75,2.75,0,0,1-.95,0,6.15,6.15,0,0,1-1.1-.29,4.49,4.49,0,0,1-1.37-.76,2,2,0,0,1-.56-.75,3.55,3.55,0,0,1-.15-1,10.36,10.36,0,0,0-.08-1.11,3,3,0,0,0-.42-1.1,8.3,8.3,0,0,1-1.27-2.34,8.17,8.17,0,0,1,.1-3,6.25,6.25,0,0,0-.06-3.21c-.38-1.07-1.1-2-1.47-3.25a16,16,0,0,1-.25-3.81,5.15,5.15,0,0,0-.42-1.9c-.28-.61-.66-1.18-.95-1.82a12.86,12.86,0,0,1-.85-4.18c-.07-.71-.15-1.44-.23-2.18a10.69,10.69,0,0,0-.37-2.18,17.42,17.42,0,0,0-.8-2.12,7.31,7.31,0,0,1-.39-1.11c-.07-.4-.08-.78-.11-1.17a14.47,14.47,0,0,1,.11-2.37c.1-.79.24-1.57.33-2.35v-.14l0-.16.14.07a5.17,5.17,0,0,1,1.85,1.56,8.37,8.37,0,0,1,1.12,2.08,25.54,25.54,0,0,1,1,4.48,12.07,12.07,0,0,0,1.38,4.13c.37.62.82,1.18,1.21,1.77a5,5,0,0,1,.85,1.95c.19,1.44-.61,2.71-.45,4a4.55,4.55,0,0,0,.61,1.78c.31.54.67,1.05,1,1.56a10,10,0,0,1,.91,1.58,5.25,5.25,0,0,1,.43,1.7c.08,1.15-.09,2.24,0,3.27a7.5,7.5,0,0,0,.84,2.81c.43.85.85,1.6,1.25,2.35.19.37.36.73.51,1.09a5.74,5.74,0,0,1,.29,1.08,6.31,6.31,0,0,1,0,1.94,4.78,4.78,0,0,1-1,2.48,1.58,1.58,0,0,1-.28.3,1,1,0,0,1-.22.19l-.2.14a4.58,4.58,0,0,0,.67-.65,5,5,0,0,0,.94-2.46,6.93,6.93,0,0,0,0-1.93,6.3,6.3,0,0,0-.3-1,10.72,10.72,0,0,0-.52-1.08c-.38-.73-.85-1.49-1.27-2.34a8,8,0,0,1-.85-2.86c-.08-1.05.08-2.15,0-3.27a4.81,4.81,0,0,0-.4-1.66,10.36,10.36,0,0,0-.89-1.55c-.35-.5-.71-1-1-1.57a4.69,4.69,0,0,1-.64-1.85c-.16-1.36.64-2.63.42-4a4.56,4.56,0,0,0-.81-1.86c-.38-.59-.84-1.14-1.22-1.77a12.32,12.32,0,0,1-1.41-4.21,24.82,24.82,0,0,0-1-4.44,8,8,0,0,0-1.09-2,5,5,0,0,0-1.75-1.49l.16-.09v.14c-.09.79-.24,1.58-.33,2.35a13.46,13.46,0,0,0-.13,2.37,10.5,10.5,0,0,0,.1,1.14,6.66,6.66,0,0,0,.37,1.06,18.64,18.64,0,0,1,.82,2.15,11.07,11.07,0,0,1,.37,2.22c.07.73.15,1.46.22,2.18a12.92,12.92,0,0,0,.85,4.12c.29.62.67,1.19,1,1.82a5.3,5.3,0,0,1,.42,2,16.59,16.59,0,0,0,.24,3.78c.35,1.17,1.09,2.12,1.46,3.24a6.76,6.76,0,0,1,0,3.28,7.56,7.56,0,0,0-.12,2.94,9.18,9.18,0,0,0,1.24,2.32,3.08,3.08,0,0,1,.42,1.14,10.36,10.36,0,0,1,.07,1.12,3.34,3.34,0,0,0,.14,1,1.78,1.78,0,0,0,.52.72,4.63,4.63,0,0,0,1.33.76,6,6,0,0,0,1.1.31,5.38,5.38,0,0,0,.69.07Z" transform="translate(-0.2 -0.01)"/><path class="cls-3" d="M164.35,126.05l0,.11.07.3c.07.27.14.68.27,1.19a18.21,18.21,0,0,0,.7,1.78c.3.8.57,1.61.8,2.43s.47,1.92.71,3a12.77,12.77,0,0,0,1.07,3.34c.28.55.59,1.12.85,1.73a7.4,7.4,0,0,1,.48,2c.17,1.39.41,2.77.71,4.14l1.88,7.89c.59,2.42,1.13,4.6,1.58,6.44s.8,3.31,1.05,4.35c.11.5.2.9.27,1.19l.07.31v.1a.3.3,0,0,1,0-.1l-.09-.3c-.08-.29-.18-.68-.31-1.18l-1.12-4.33c-.47-1.81-1-4-1.62-6.43s-1.23-5.09-1.91-7.9a39.1,39.1,0,0,1-.71-4.15,7.91,7.91,0,0,0-.46-1.92c-.24-.6-.55-1.16-.82-1.72a12.18,12.18,0,0,1-1.07-3.39c-.23-1.09-.45-2.1-.69-3s-.5-1.72-.76-2.42a17.08,17.08,0,0,1-.67-1.81c-.12-.54-.18-.92-.23-1.2l0-.31a.34.34,0,0,1,0-.1Z" transform="translate(-0.2 -0.01)"/><path class="cls-6" d="M174.3,166.33c-2.22-1.34-2.84-5.37-1.89-7.78s2.58-4.62,2.85-7.21c.2-2-.43-4,0-6,.64-2.61,3.21-4.63,3.2-7.32,0-1.51-.85-2.94-.79-4.44.1-1.85,1.53-3.31,2.41-4.94,1.37-2.48,1.47-5.44,1.95-8.23s1.56-5.78,4.05-7.14c.35,2.37,1,4,.75,7.2-.08,1.16-1.43,3.36-1.63,5.89-.12,1.52-.2,3-.3,4.54a14.91,14.91,0,0,1-.74,4.35,31.53,31.53,0,0,0-1.38,3.1c-.58,2.05.16,4.28-.31,6.36-.4,1.76-1.63,3.27-1.89,5.06-.36,2.5,1.25,5.12.4,7.51-.42,1.18-1.4,2.12-1.69,3.36-.22.95,0,2-.2,2.91-.32,1.54-3.26,2.72-4.83,2.62" transform="translate(-0.2 -0.01)"/><path class="cls-3" d="M185.49,115.67v.13l-.05.39c-.06.35-.12.85-.24,1.5s-.47,1.39-.74,2.28-.58,1.9-.85,3-.48,2.4-.71,3.76a15.89,15.89,0,0,1-1.17,4.24c-.32.71-.67,1.43-.94,2.18a10.42,10.42,0,0,0-.49,2.41,47.53,47.53,0,0,1-.68,5.19c-.7,3.52-1.37,6.86-2,9.91s-1.22,5.77-1.69,8.06-.89,4.14-1.17,5.43c-.14.64-.25,1.13-.33,1.48l-.09.38a.5.5,0,0,1,0,.13v-.13c0-.1,0-.23.07-.39l.29-1.48,1.1-5.46c.48-2.3,1-5,1.66-8.08s1.27-6.39,2-9.9c.31-1.71.54-3.44.68-5.18a9.79,9.79,0,0,1,.5-2.45c.27-.78.63-1.49.95-2.2a15.8,15.8,0,0,0,1.18-4.21c.23-1.35.46-2.62.74-3.77a29.38,29.38,0,0,1,.86-3c.29-.89.64-1.62.78-2.26s.21-1.14.28-1.48c0-.16.05-.29.07-.39S185.49,115.67,185.49,115.67Z" transform="translate(-0.2 -0.01)"/></svg>